<?xml version="1.0" standalone="no"?>
<!DOCTYPE svg PUBLIC "-//W3C//DTD SVG 1.1//EN" "http://www.w3.org/Graphics/SVG/1.1/DTD/svg11.dtd" >
<svg xmlns="http://www.w3.org/2000/svg">
<metadata></metadata>
<defs>
<font id="serif_medium_italicserifMdIt" horiz-adv-x="598" >
<font-face units-per-em="2048" ascent="1638" descent="-410" />
<missing-glyph horiz-adv-x="487" />
<glyph horiz-adv-x="2048" />
<glyph horiz-adv-x="2048" />
<glyph unicode="&#xd;" horiz-adv-x="487" />
<glyph unicode=" "  horiz-adv-x="487" />
<glyph unicode="&#x09;" horiz-adv-x="487" />
<glyph unicode="&#xa0;" horiz-adv-x="487" />
<glyph unicode="!" horiz-adv-x="577" d="M92 106q0 72 55.5 127.5t128.5 55.5q57 0 96.5 -37t39.5 -92q0 -72 -59.5 -127.5t-133.5 -55.5q-55 0 -91 37t-36 92zM223 389l109 887h256l-223 -887h-142z" />
<glyph unicode="&#x22;" horiz-adv-x="843" d="M76 752l162 231q-57 0 -93 37t-36 92q0 72 55 126t127 54q59 0 97 -35.5t38 -91.5q0 -12 -2 -26q-18 -100 -256 -387h-92zM432 752l164 231q-57 0 -94 37t-37 92q0 72 56.5 126t127.5 54q57 0 95 -35.5t38 -91.5q0 -12 -2 -26q-18 -100 -256 -387h-92z" />
<glyph unicode="#" horiz-adv-x="1124" d="M76 0l164 377h-154l49 110h156l84 193h-156l49 111h156l168 380h151l-168 -380h154l168 380h152l-168 -380h153l-49 -111h-154l-83 -193h153l-49 -110h-156l-164 -377h-151l164 377h-154l-164 -377h-151zM442 487h154l84 193h-154z" />
<glyph unicode="$" horiz-adv-x="1124" d="M-25 209q0 18 5 35h268q-2 -88 29.5 -127t123.5 -54l99 558q-186 61 -221 79q-145 78 -146 209q0 20 4 45q31 172 205 263q115 59 276 75l25 142h131l-24 -142q399 -30 387 -274h-269q4 78 -14 117q-29 55 -121 61l-92 -516q74 -25 145 -49q104 -41 158 -92 q76 -70 76 -172q0 -27 -4 -56q-57 -317 -500 -342l-29 -170h-131l29 170q-143 6 -258 56q-152 68 -152 184zM408 883q0 -119 108 -168l86 481q-150 -25 -184 -217q-10 -55 -10 -96zM532 63q170 25 207 240q8 49 9 90q0 125 -123 193z" />
<glyph unicode="%" horiz-adv-x="1816" d="M82 811q0 43 8 92q35 197 164 297q119 94 303 94q334 0 334 -293q0 -45 -8 -98q-33 -188 -159 -290.5t-306 -102.5q-156 0 -246 78t-90 223zM311 723q0 -158 117 -158q102 0 158 119q30 67 57 219q23 127 23 184q0 154 -119 154q-102 0 -156 -113q-31 -68 -59 -225 q-20 -121 -21 -180zM500 0l684 1278h131l-684 -1278h-131zM918 281q0 43 8 90q35 197 164 299q121 94 303 94q336 0 336 -295q-1 -45 -11 -98q-33 -186 -158.5 -288.5t-306.5 -102.5q-156 0 -245.5 77.5t-89.5 223.5zM1147 193q0 -158 117 -158q100 0 155 119q31 67 58 217 q23 127 22 186q0 152 -117 152q-102 0 -155 -113q-31 -66 -60 -225q-20 -119 -20 -178z" />
<glyph unicode="&#x26;" horiz-adv-x="1474" d="M82 305q0 29 4 57q45 252 365 316q-180 68 -181 246q0 29 6 57q25 145 187 236q143 80 313 79q412 0 412 -223q0 -23 -4 -45h-271q2 14 2 29q0 137 -159 137q-113 0 -158 -72q-25 -39 -45 -161q-4 -18 -4 -37q0 -94 94 -144q70 -37 154 -37l39 -122q-145 0 -252 -33 q-182 -57 -209 -201q-4 -33 -4 -61q0 -203 317 -203q123 0 307 127l-215 657h133l187 -575q115 98 215 213l-29 -158q-29 -35 -156 -154l76 -233l-129 -2l-51 154q-254 -172 -467 -172q-195 0 -330 81q-147 92 -147 244z" />
<glyph unicode="'" horiz-adv-x="493" d="M76 752l162 231q-57 0 -93 37t-36 92q0 72 55 126t127 54q59 0 97 -35.5t38 -91.5q0 -12 -2 -26q-18 -100 -256 -387h-92z" />
<glyph unicode="(" d="M78 127q0 139 55 455q76 424 170 583q121 207 389 252l-14 -80q-135 -45 -215 -245q-63 -156 -126 -511.5t-63 -486.5q0 -219 136 -280l-13 -76q-176 20 -252 125q-68 90 -67 264z" />
<glyph unicode=")" d="M-92 -262l12 76q150 57 225 252q53 137 119 514q55 313 55 467q0 242 -131 290l15 80q174 -31 248 -131q68 -92 67 -270q0 -145 -51 -434q-74 -422 -160 -580q-125 -231 -399 -264z" />
<glyph unicode="*" horiz-adv-x="546" d="M2 1114l16 88l199 -45zM20 1032l199 113l-145 -178zM66 1284l75 62l82 -179zM150 934l81 207l7 -207h-88zM229 1380h88l-81 -209zM242 1145l157 -115l-73 -63zM246 1167l147 179l51 -64zM248 1157l217 43l-16 -88z" />
<glyph unicode="+" horiz-adv-x="1210" d="M199 567l28 162h348l60 336h180l-59 -336h346l-29 -162h-346l-63 -354h-181l64 354h-348z" />
<glyph unicode="," horiz-adv-x="452" d="M35 -254l162 231q-57 0 -93 37t-36 92q0 72 55 127.5t127 55.5q59 0 97 -37t38 -90q0 -15 -2 -27q-18 -102 -256 -389h-92z" />
<glyph unicode="-" horiz-adv-x="878" d="M115 389l28 162h650l-29 -162h-649z" />
<glyph unicode="." horiz-adv-x="421" d="M88 106q0 72 55.5 127.5t126.5 55.5q59 0 97.5 -37t38.5 -90q0 -74 -58.5 -129.5t-130.5 -55.5q-57 0 -93 37t-36 92z" />
<glyph unicode="/" horiz-adv-x="667" d="M-102 -252l702 1659h152l-703 -1659h-151z" />
<glyph unicode="0" horiz-adv-x="1075" d="M8 479q0 82 17 168q41 231 200 422q190 227 443 227q215 0 327 -151q98 -131 99 -342q-1 -78 -15 -156q-47 -270 -205 -454q-182 -213 -440 -213q-215 0 -328 151q-98 131 -98 348zM279 354q0 -297 170 -297q242 0 346 590q33 184 32 297q0 274 -174 275 q-244 0 -344 -572q-31 -170 -30 -293z" />
<glyph unicode="1" horiz-adv-x="516" d="M47 1135q4 20 27 22l358 119h129l-225 -1276h-285l174 981q4 25 4 45q0 59 -47 74q-27 10 -116 10q-23 2 -19 25z" />
<glyph unicode="2" horiz-adv-x="780" d="M-119 0l23 129q195 147 411 422q256 324 256 502q0 141 -145 141q-96 0 -158 -59q-47 -47 -57 -107h-111q14 86 107 168q115 100 274 100q168 0 264 -61q106 -68 107 -201q0 -32 -6 -67q-35 -203 -348 -494q-90 -84 -398 -321h377q100 0 141 29.5t58 113.5q6 25 29 24 q20 0 18 -24l-53 -295h-789z" />
<glyph unicode="3" horiz-adv-x="909" d="M-51 41l20 121q131 -76 226 -76q178 0 286 84q100 78 125 217q6 33 6 62q0 172 -231 172h-121l21 122h120q193 0 232 218q8 45 8 77q0 156 -170 156q-102 0 -162 -64q-41 -45 -51 -102h-113q16 100 119 180q113 88 262 88q154 0 267 -67q127 -78 127 -203q0 -22 -2 -45 q-23 -119 -115 -203q-72 -68 -170 -100q258 -55 258 -256q0 -29 -6 -60q-31 -178 -221 -286q-170 -96 -385 -96q-158 0 -330 61z" />
<glyph unicode="4" horiz-adv-x="954" d="M-55 328l18 102l752 846h211l-144 -813h154l-25 -135h-153l-58 -328h-276l57 328h-536zM123 463h383l92 520z" />
<glyph unicode="5" horiz-adv-x="827" d="M-106 41l22 121q150 -76 229 -76q291 0 349 317q8 49 8 95q0 203 -152 202q-168 0 -293 -131h-94l307 707h615l-49 -111h-334l-156 -362q57 14 133 14q145 0 226 -81t81 -224q0 -49 -10 -102q-33 -188 -208 -309t-382 -121q-139 0 -292 61z" />
<glyph unicode="6" horiz-adv-x="952" d="M-49 313q0 59 14 129l94 424q41 188 217 312q170 119 375 118q150 0 291 -61l-20 -121q-150 76 -228 76q-311 0 -379 -377q72 90 199 90q184 0 289.5 -91t105.5 -261q0 -51 -10 -109q-41 -231 -192 -350q-141 -113 -357 -112q-182 0 -287 81q-113 86 -112 252zM223 223 q0 -180 139 -180q121 0 183 135q36 78 69 264q25 141 25 211q0 184 -137 185q-119 0 -185 -140q-37 -78 -67 -256q-27 -150 -27 -219z" />
<glyph unicode="7" horiz-adv-x="747" d="M-57 0l632 1174h-276q-102 0 -143 -30t-56 -114q-6 -23 -28 -22q-23 0 -19 22l43 246h783l-19 -102l-631 -1174h-286z" />
<glyph unicode="8" horiz-adv-x="905" d="M-61 260q0 33 6 68q51 283 356 344q-203 57 -203 241q0 31 4 64q29 160 158 244q119 76 305 75q356 0 357 -254q-1 -30 -7 -65q-41 -238 -307 -305q244 -51 244 -271q0 -35 -8 -73q-29 -170 -169 -261.5t-343 -91.5q-180 0 -286.5 74t-106.5 211zM205 186 q0 -152 137 -151q115 0 170 100q32 58 55 193q18 104 19 153q0 152 -137 152q-115 0 -170 -103q-31 -59 -58 -202q-16 -96 -16 -142zM338 844q0 -139 123 -139q102 0 153 94q32 55 52 178q16 92 16 133q0 131 -127 131q-102 0 -152 -86q-29 -49 -51 -178q-14 -88 -14 -133z " />
<glyph unicode="9" horiz-adv-x="952" d="M-10 41l20 121q150 -76 230 -76q311 0 378 377q-88 -90 -198 -90q-184 0 -287 90q-109 92 -108 262q0 51 10 109q41 231 192 352q141 111 357 110q182 0 286 -79q113 -88 113 -252q0 -61 -14 -131l-97 -424q-41 -188 -214 -309t-377 -121q-139 0 -291 61zM295 625 q0 -186 137 -187q119 0 184 140q37 80 68 256q27 152 27 219q0 180 -140 180q-121 0 -182 -133q-37 -78 -70 -266q-25 -139 -24 -209z" />
<glyph unicode=":" horiz-adv-x="497" d="M74 106q0 72 56 127.5t128 55.5q59 0 97 -37t38 -90q0 -74 -59 -129.5t-131 -55.5q-57 0 -93 37t-36 92zM164 618q0 72 56 127.5t128 55.5q59 0 97 -37t38 -90q0 -74 -58 -129.5t-132 -55.5q-57 0 -93 37t-36 92z" />
<glyph unicode=";" horiz-adv-x="473" d="M45 -254l162 231q-57 0 -94 37t-37 92q0 74 56 128.5t128 54.5q59 0 97 -37t38 -90q0 -15 -2 -27q-18 -102 -258 -389h-90zM166 618q0 72 56.5 127.5t127.5 55.5q59 0 97 -37t38 -90q0 -74 -59 -129.5t-131 -55.5q-57 0 -93 37t-36 92z" />
<glyph unicode="&#x3c;" horiz-adv-x="843" d="M68 301l16 90l743 301l-24 -135l-545 -211l471 -213l-24 -133z" />
<glyph unicode="=" horiz-adv-x="1124" d="M82 272l22 125h895l-22 -125h-895zM125 520l22 123h895l-22 -123h-895z" />
<glyph unicode="&#x3e;" horiz-adv-x="843" d="M14 0l25 133l543 213l-469 211l24 135l637 -299l-16 -94z" />
<glyph unicode="?" horiz-adv-x="878" d="M111 106q0 72 55 127.5t129 55.5q57 0 96 -37t39 -90q0 -74 -59 -129.5t-133 -55.5q-55 0 -91 37t-36 92zM141 1016q66 281 416 280q143 0 231.5 -61t88.5 -172q-1 -24 -7 -51q-25 -143 -194 -281l-191 -153q-57 -47 -75.5 -75t-30.5 -95l-4 -29h-127l22 125 q16 104 45 147q23 35 103 105l51 43q94 80 123 116q59 72 59 156q0 135 -110 135q-135 0 -179 -190h-221z" />
<glyph unicode="@" horiz-adv-x="1638" d="M84 715q0 328 223 534q217 201 543 201q297 0 500.5 -168t203.5 -436q0 -260 -190 -428q-158 -139 -311 -139q-117 0 -123 114h-4q-115 -115 -262 -114q-121 0 -196 92t-75 233q0 223 135 373q131 143 310 143q164 0 239 -139l15 41l170 65l-138 -505q-20 -76 -20 -97 q0 -51 53 -51q86 0 166 116t80 265q0 229 -164 365q-154 127 -391 127q-260 0 -426 -171t-166 -425q0 -281 174 -439q164 -150 436 -149q297 0 457 180h152q-100 -152 -264 -237.5t-353 -85.5q-338 0 -551 192q-223 201 -223 543zM608 643q0 -82 39 -135t101 -53 q178 -1 229 239q8 41 8 76q0 170 -145 176q-84 2 -144.5 -65.5t-83.5 -182.5q-4 -29 -4 -55z" />
<glyph unicode="A" horiz-adv-x="1038" d="M-145 0l538 985q27 53 27 94q0 74 -96 74q-23 2 -19 25q4 20 27 22l440 76l238 -1276h-297l-74 395h-455l-211 -395h-118zM233 483h392l-101 535z" />
<glyph unicode="B" horiz-adv-x="1138" d="M12 0l172 975q6 37 6 63q0 111 -118 111q-23 0 -19 25q4 20 27 22q371 57 596 80q35 4 72 4q162 0 272 -59q131 -70 131 -203q0 -22 -6 -49q-33 -195 -350 -293h-2q313 -59 313 -279q0 -27 -6 -57q-59 -340 -676 -340h-412zM315 106h164q158 0 238.5 63t105.5 206 q6 29 6 55q0 199 -268 199h-153zM424 719h108q289 0 332 242q6 33 6 61q0 168 -192 168q-20 0 -45 -2l-129 -12z" />
<glyph unicode="C" horiz-adv-x="919" d="M4 465q0 88 16 188q51 285 216 453q184 190 483 190q426 0 426 -225q0 -26 -4 -55h-267q4 23 5 45q0 147 -193 147q-283 0 -373 -508q-30 -169 -30 -266v-6q0 -340 292 -340q215 0 347 82l-23 -121q-187 -69 -395 -69h-6q-244 0 -369 124.5t-125 360.5z" />
<glyph unicode="D" horiz-adv-x="1142" d="M12 0l174 977q6 35 7 61q0 111 -121 111q-23 0 -19 25q4 20 27 22q344 53 577 80q57 6 109 6q422 0 422 -432q-1 -94 -21 -209q-72 -408 -299 -545q-158 -96 -499 -96h-357zM315 106h82q217 0 328 121t162 410q28 157 28 257v7q0 293 -247 293q-37 0 -80 -6l-84 -12z" />
<glyph unicode="E" horiz-adv-x="856" d="M12 0l172 975q6 37 6 63q0 111 -118 111q-23 0 -19 25q4 20 27 22l440 80h490l-41 -234q-6 -23 -27 -22q-23 0 -20 22q4 31 4 52q0 53 -34 73.5t-118 20.5h-266q-2 -14 -86 -477h381l-15 -88h-380l-93 -517h488l-19 -106h-772z" />
<glyph unicode="F" horiz-adv-x="858" d="M78 0l172 975q6 37 6 63q0 109 -119 109q-23 2 -18 24q4 20 26 23l441 82h489l-41 -234q-6 -23 -26 -22q-23 0 -21 22q4 31 4 52q0 53 -33.5 73.5t-117.5 20.5h-269l-84 -477h381l-14 -88h-381l-111 -623h-284z" />
<glyph unicode="G" horiz-adv-x="1040" d="M-16 479q0 82 16 168q41 231 201 422q190 227 442 227q174 0 285 -51q133 -63 133 -186q0 -23 -4 -45h-262q4 14 4 28q0 68 -51.5 117t-124.5 49q-150 0 -242 -200q-55 -125 -96 -361q-29 -160 -29 -272q0 -289 172 -291h6q111 0 248 74l57 325q6 39 6 68q0 104 -120 104 q-20 2 -17 25q4 23 27 25h428l-135 -752q-33 37 -90 67q-66 35 -115 35q-74 -2 -164 -38.5t-149 -36.5h-6q-210 0 -322 149q-98 133 -98 350z" />
<glyph unicode="H" horiz-adv-x="1193" d="M12 0l174 983q6 39 7 66q0 104 -121 104q-23 2 -19 25q4 20 27 22l442 76l-100 -565h483l101 565h282l-225 -1276h-283l111 623h-483l-111 -623h-285z" />
<glyph unicode="I" horiz-adv-x="477" d="M61 0l175 981q4 37 4 63q0 109 -119 109q-23 2 -19 25q4 20 27 22l442 76l-225 -1276h-285z" />
<glyph unicode="J" horiz-adv-x="468" d="M-193 -401l15 88h129q51 0 84 86q25 66 53 227l174 981q4 39 4 68q0 57 -25.5 79.5t-93.5 22.5q-20 2 -16 25q2 23 25 22l442 76l-225 -1274q-27 -156 -142 -272q-129 -129 -297 -129h-127z" />
<glyph unicode="K" horiz-adv-x="1026" d="M45 0l174 981q4 31 4 55q0 117 -119 117q-23 2 -18 25q4 20 27 22l440 76l-104 -598l661 598h141l-581 -524l393 -752h-346l-289 551l-98 -551h-285z" />
<glyph unicode="L" horiz-adv-x="698" d="M12 0l174 981q6 39 7 66q0 106 -121 106q-23 2 -19 25q4 20 27 22l442 76l-207 -1170h488l-19 -106h-772z" />
<glyph unicode="M" horiz-adv-x="1505" d="M12 0l172 971q6 37 6 63q0 111 -118 111q-23 0 -19 24q4 20 27 23l463 84l245 -981l521 981h290l-225 -1276h-282l176 997l-529 -997h-161l-275 1096l-192 -1096h-99z" />
<glyph unicode="N" horiz-adv-x="1165" d="M53 0l172 973q6 37 6 63q0 109 -118 109q-23 0 -19 24q4 20 27 23l465 84l418 -897l157 897h99l-226 -1276h-207l-481 1102l-194 -1102h-99z" />
<glyph unicode="O" horiz-adv-x="1019" d="M8 479q0 82 17 168q41 231 200 422q190 227 443 227q215 0 327 -151q98 -131 99 -342q-1 -78 -15 -156q-47 -270 -205 -454q-182 -213 -440 -213q-215 0 -328 151q-98 131 -98 348zM281 377q0 -287 174 -287q242 0 340 557q32 179 32 290v7q0 274 -174 275 q-244 0 -344 -572q-28 -153 -28 -262v-8z" />
<glyph unicode="P" horiz-adv-x="940" d="M12 0l172 977q6 37 6 63q0 109 -118 109q-23 0 -19 25q4 20 27 22q360 55 596 80q27 2 55 2q160 0 279 -72q135 -84 135 -223q0 -24 -6 -51q-35 -203 -224 -301q-147 -78 -348 -78h-172l-98 -553h-285zM410 643h108q289 0 338 279q6 35 6 65q0 203 -205 203q-20 0 -43 -2 l-110 -12z" />
<glyph unicode="Q" horiz-adv-x="1075" d="M43 647q41 231 201 422q190 227 442 227q215 0 328 -151q98 -131 98 -342q0 -78 -14 -156q-39 -217 -154 -387q-129 -190 -315 -252q37 -123 233 -123q33 0 109 13l-19 -109q-100 -22 -166 -22h-6q-215 0 -305 46t-117 175q-168 31 -254 174q-75 125 -75 312q0 87 14 173 zM299 377q0 -287 174 -287q242 0 340 557q33 184 33 297q0 274 -174 275q-244 0 -344 -572q-29 -158 -29 -270z" />
<glyph unicode="R" horiz-adv-x="1009" d="M-4 0l174 975q4 37 4 63q0 109 -119 109q-23 2 -18 24q4 20 26 23q391 59 424 63.5t172 18.5q27 2 54 2q160 0 278 -72q137 -84 137 -223q0 -24 -6 -51q-51 -293 -393 -361l254 -571h-303l-252 553h-49l-98 -553h-285zM393 643h107q289 0 338 279q6 35 6 65 q0 205 -199 205q-23 0 -49 -4l-109 -14z" />
<glyph unicode="S" horiz-adv-x="837" d="M-51 29l20 127q158 -57 316 -58q111 0 168 31q82 43 102 162q2 14 2 26q0 88 -131 175q-121 78 -244 157q-131 109 -131 252q0 33 6 68q29 154 176 241q141 86 349 86h6q106 0 291 -32l-21 -111q-176 37 -293 37q-92 0 -153.5 -51.5t-61.5 -141.5q0 -86 131 -168 q244 -150 244 -151q133 -106 133 -254q0 -35 -8 -72q-33 -188 -209 -286q-152 -86 -371 -86q-143 0 -321 49z" />
<glyph unicode="T" horiz-adv-x="800" d="M72 1042l41 234h985l-41 -234q-6 -23 -27 -22q-23 0 -20 22q4 31 4 54q0 51 -34 71.5t-118 20.5h-131l-209 -1188h-284l208 1188h-131q-98 0 -140 -31t-56 -115q-6 -23 -29 -22q-20 0 -18 22z" />
<glyph unicode="U" horiz-adv-x="1140" d="M106 1176q4 20 27 22l440 76l-135 -760q-27 -156 -26 -221q0 -195 190 -197h7q190 0 280 115q66 82 98 260l141 805h109l-139 -784q-43 -246 -127 -351q-126 -161 -410 -161h-4q-430 0 -430 333q0 49 10 107l101 559q4 37 4 63q0 109 -117 109q-20 2 -20 19q0 3 1 6z" />
<glyph unicode="V" horiz-adv-x="999" d="M119 1190q4 20 26 22l377 64l197 -866l475 866h109l-699 -1276h-127l-227 993q-23 102 -39 129q-23 43 -74 43q-19 0 -19 17q0 4 1 8z" />
<glyph unicode="W" horiz-adv-x="1415" d="M4 1186q4 23 27 22l377 68l200 -868l162 297l-63 288q-25 102 -39 129q-23 41 -74 41q-23 2 -19 25q4 20 27 22l377 66l27 -133l73 133h107l-148 -268l140 -594l467 862h106l-692 -1276h-127l-131 567l-307 -567h-132l-225 991q-25 102 -39 129q-23 41 -75 41 q-20 2 -20 19q0 3 1 6z" />
<glyph unicode="X" horiz-adv-x="1036" d="M10 0l449 592l-199 467q-25 61 -45 82q-28 28 -77 28h-3q-23 2 -18 25q4 20 26 23l342 59l213 -481l365 481h117l-439 -582l306 -694h-336l-211 492l-371 -492h-119z" />
<glyph unicode="Y" horiz-adv-x="886" d="M92 1194q4 23 27 23l342 59l229 -488l369 488h117l-439 -584l-123 -692h-284l104 592l-201 467q-27 61 -43 82q-28 28 -76 28h-3q-20 2 -20 19q0 3 1 6z" />
<glyph unicode="Z" horiz-adv-x="837" d="M-117 0l21 111l823 1077h-352q-100 0 -141 -31t-56 -115q-6 -23 -28 -22q-20 0 -19 22l41 234h856l-18 -100l-822 -1070h396q100 0 141 30t57 114q4 23 29 22q20 0 18 -22l-45 -250h-901z" />
<glyph unicode="[" horiz-adv-x="632" d="M47 -252l291 1659h410l-15 -88h-123q-66 0 -92 -51q-14 -29 -31 -121l-200 -1135q-14 -90 -15 -114q0 -63 76 -64h123l-14 -86h-410z" />
<glyph unicode="\" horiz-adv-x="667" d="M205 1407h164l108 -1659h-166z" />
<glyph unicode="]" horiz-adv-x="632" d="M-57 -252l14 86h123q66 0 90 43q14 27 33 135l200 1135q12 74 13 98q0 74 -74 74h-123l14 88h410l-291 -1659h-409z" />
<glyph unicode="^" horiz-adv-x="774" d="M94 969l260 307h117l156 -307h-140l-96 178l-160 -178h-137z" />
<glyph unicode="_" horiz-adv-x="948" d="M-8 -217l16 94h948l-16 -94h-948z" />
<glyph unicode="`" d="M156 1356h219v-324h-115z" />
<glyph unicode="a" horiz-adv-x="927" d="M4 350q0 51 10 105q33 188 169 318t315 130q131 0 166 -102l14 82l293 51l-164 -934h-285l10 61q-37 -45 -69 -61q-41 -20 -121 -20q-166 0 -256 110q-82 100 -82 260zM281 293q0 -203 135 -203q121 0 174 293l12 72q23 127 23 196q0 150 -82 150q-184 0 -246 -346 q-16 -92 -16 -162z" />
<glyph unicode="b" horiz-adv-x="888" d="M-37 -18l191 1075q8 45 8 76q0 96 -123 96q-20 2 -16 24q2 20 26 23l440 76l-96 -551q74 102 201 102q154 0 245 -100.5t91 -255.5q0 -215 -144 -387q-149 -180 -362 -180q-78 0 -113 20q-27 16 -49 61zM301 223q0 -133 86 -133q184 0 250 365q16 94 16 157 q0 188 -139 189q-121 0 -182 -346l-13 -72q-18 -104 -18 -160z" />
<glyph unicode="c" horiz-adv-x="757" d="M-20 332q0 51 10 108q41 231 192 361q145 123 357 123q137 0 229 -70t92 -174q0 -19 -4 -37h-203q6 31 6 57q0 158 -133 158q-176 0 -239 -330q-12 -63 -13 -125q0 -129 54 -208q57 -86 161 -86q125 0 259 108l-21 -129q-136 -108 -350 -108h-4q-184 0 -288.5 90 t-104.5 262z" />
<glyph unicode="d" horiz-adv-x="925" d="M-25 350q0 51 11 105q33 188 169 318t314 130q131 0 166 -102l45 256q8 47 8 76q0 96 -123 96q-20 2 -16 24q2 20 26 23l441 76l-238 -1352h-284l10 61q-37 -45 -70 -61q-41 -20 -121 -20q-166 0 -256 110q-82 100 -82 260zM252 293q0 -203 135 -203q121 0 174 293l12 72 q23 127 23 196q0 150 -82 150q-184 0 -246 -346q-16 -92 -16 -162z" />
<glyph unicode="e" horiz-adv-x="815" d="M-12 332q0 51 10 108q41 231 192 361q145 123 357 123q162 0 244 -115q62 -89 62 -208q0 -17 -1 -34l-569 -116q-6 -35 -7 -72q0 -113 54 -186q59 -84 168 -84q127 0 260 110l-25 -131q-134 -108 -348 -108h-4q-182 0 -287.5 90t-105.5 262zM295 528l373 76q2 33 2 64 q0 190 -133 190q-170 0 -242 -330z" />
<glyph unicode="f" horiz-adv-x="589" d="M-2 0l143 809h-123l17 98h123l18 103q23 121 137 215q125 102 287 102q307 0 307 -215v-8h-211q4 23 4 41q0 119 -98 119q-96 0 -133 -211l-27 -146h232l-17 -98h-231l-143 -809h-285z" />
<glyph unicode="g" horiz-adv-x="911" d="M0 350q0 51 10 105q33 188 169 318t315 130q127 0 165 -102l21 106l440 76q20 -2 20 -16q0 -3 -1 -6q-4 -25 -27 -27q-84 0 -120 -36t-54 -136l-133 -760q-29 -158 -143 -274q-127 -129 -297 -129h-316l14 88h318q82 0 137 313l12 61q-41 -45 -71 -61q-41 -20 -119 -20 q-168 0 -258 110q-82 100 -82 260zM276 291q0 -201 138 -201q121 0 172 293l14 72q20 127 21 196q0 150 -82 150q-184 0 -244 -346q-18 -94 -19 -164z" />
<glyph unicode="h" horiz-adv-x="1052" d="M-4 0l186 1057q8 45 8 76q0 96 -120 96q-23 2 -19 24q4 20 27 23l442 76l-100 -566q113 117 309 117q143 0 217 -98q61 -82 62 -199q0 -30 -4 -57l-99 -549h-284l92 518q16 94 16 137q0 119 -98 119q-102 0 -171 -74.5t-87 -185.5l-92 -514h-285z" />
<glyph unicode="i" horiz-adv-x="456" d="M0 836q4 20 27 22l442 76l-166 -934h-285l113 639q8 45 8 76q0 55 -27.5 75.5t-93.5 20.5q-19 2 -19 17q0 4 1 8zM180 1100q0 72 55.5 127t129.5 55q57 0 96 -36t39 -91q0 -72 -58.5 -128t-132.5 -56q-57 0 -93 36.5t-36 92.5z" />
<glyph unicode="j" horiz-adv-x="464" d="M-217 -401l14 88h129q49 0 84 86q25 66 53 227l113 639q8 45 8 76q0 55 -27.5 75.5t-93.5 20.5q-23 2 -18 25q4 20 27 22l440 76l-164 -934q-27 -156 -141 -272q-129 -129 -297 -129h-127zM225 1100q0 72 55.5 127t127.5 55q59 0 97 -36t38 -91q0 -72 -58.5 -128 t-130.5 -56q-57 0 -93 36.5t-36 92.5z" />
<glyph unicode="k" horiz-adv-x="915" d="M6 0l187 1057q8 45 8 76q0 96 -121 96q-23 2 -19 24q4 20 27 23l440 76l-237 -1352h-285zM387 549l492 358h149l-354 -256l276 -651h-329z" />
<glyph unicode="l" horiz-adv-x="464" d="M20 0l187 1057q8 45 8 76q0 96 -121 96q-23 2 -18 24q4 20 26 23l443 76l-240 -1352h-285z" />
<glyph unicode="m" horiz-adv-x="1646" d="M-6 836q2 20 26 22l441 76l-21 -119q115 88 303 88q217 0 263 -166q94 166 360 166q145 0 217 -80q66 -72 66 -190q-1 -41 -9 -84l-96 -549h-284l96 555q18 96 18 137q0 119 -100 119t-172 -78q-63 -72 -84 -182l-96 -551h-285l96 555q18 96 19 137q0 119 -101 119 q-102 0 -174 -78q-63 -72 -84 -182l-96 -551h-285l113 639q8 45 8 76q0 55 -27.5 75.5t-95.5 20.5q-17 2 -17 18q0 3 1 7z" />
<glyph unicode="n" horiz-adv-x="1030" d="M-23 836q4 20 27 22l442 76l-22 -121q109 90 305 90q141 0 217 -98q61 -82 62 -199q0 -30 -4 -57l-99 -549h-284l98 555q16 96 16 137q0 119 -98 119q-102 0 -171 -74.5t-87 -185.5l-98 -551h-285l113 639q8 45 8 76q0 55 -28 75.5t-93 20.5q-20 2 -20 19q0 3 1 6z" />
<glyph unicode="o" horiz-adv-x="899" d="M-12 332q0 51 10 108q41 231 195 361q145 123 358 123q182 0 286.5 -94.5t104.5 -272.5q0 -56 -10 -117q-39 -221 -187.5 -340.5t-361.5 -119.5q-182 0 -288.5 91t-106.5 261zM260 256q0 -166 143 -166q121 0 181 117q34 67 63 233q27 152 27 224q0 182 -137 182 q-121 0 -185 -137q-37 -80 -69 -269q-23 -125 -23 -184z" />
<glyph unicode="p" horiz-adv-x="948" d="M-45 -387l182 1026q8 47 8 78q0 53 -27.5 73.5t-92.5 20.5q-23 2 -19 25q2 20 27 22l440 76l-22 -133q74 102 200 102q156 0 246 -99t90 -255q0 -217 -141 -389q-150 -180 -365 -180q-104 0 -164 67l-77 -434h-285zM358 225q0 -135 88 -135q182 0 248 365q16 94 17 157 q0 188 -138 189q-123 0 -184 -346l-12 -72q-18 -102 -19 -158z" />
<glyph unicode="q" horiz-adv-x="913" d="M35 455q33 188 169 318t314 130q127 0 166 -102l14 82l295 51l-233 -1321h-285l80 448q-85 -81 -187 -81h-3q-168 0 -259 110q-81 99 -81 256q0 55 10 109zM301 291q0 -201 137 -201q121 0 172 293l15 72q20 127 20 196q0 150 -82 150q-184 0 -244 -346q-18 -94 -18 -164 z" />
<glyph unicode="r" horiz-adv-x="700" d="M25 836q4 20 26 22l441 76l-27 -154q88 150 268 150q20 0 51 -10l-36 -209q-26 34 -64 34h-2q-131 0 -195 -65q-49 -51 -69 -166l-90 -514h-285l113 639q8 45 8 76q0 55 -27.5 75.5t-93.5 20.5q-19 2 -19 17q0 4 1 8z" />
<glyph unicode="s" horiz-adv-x="729" d="M-55 98l28 142q143 -152 297 -152q188 0 203 80q1 3 1 6q0 43 -107 107q-209 123 -220 129q-121 86 -120 176q0 162 163 250q129 71 303 71h5q116 0 280 -33l-20 -114q-174 47 -297 47q-53 -1 -105 -23q-58 -25 -57 -61q0 -37 109 -102q186 -113 219 -138 q119 -92 118 -180q0 -168 -178 -256q-135 -67 -318 -67h-5q-102 0 -199 51q-12 6 -100 67z" />
<glyph unicode="t" horiz-adv-x="559" d="M14 809l19 98h147l31 176l291 52l-39 -228h153l-18 -98h-154l-92 -526q-12 -66 -12 -97q0 -96 133 -96q23 0 72 6l-19 -102q-90 -14 -129 -14q-342 0 -342 192q0 25 4 51l103 586h-148z" />
<glyph unicode="u" horiz-adv-x="983" d="M-45 836q4 20 27 22l442 76l-105 -590q-16 -96 -16 -137q0 -119 98 -119q102 0 174 78q66 72 84 180l52 293q8 45 8 76q0 55 -27.5 75.5t-95.5 20.5q-23 2 -18 25q4 20 26 22l445 76l-166 -934h-285l12 70q-90 -88 -303 -88q-143 0 -217 98q-61 80 -61 196q0 31 4 60 l53 303q8 45 8 76q0 55 -27.5 75.5t-93.5 20.5q-19 2 -19 17q0 4 1 8z" />
<glyph unicode="v" horiz-adv-x="710" d="M-45 836q2 20 27 22l438 76l80 -471l250 444h86l-494 -907h-76l-149 643q-23 96 -39 123q-31 45 -105 45q-19 2 -19 17q0 4 1 8z" />
<glyph unicode="w" horiz-adv-x="1175" d="M-90 836q4 20 27 22l440 76l78 -471l149 262q-29 86 -127 86q-23 2 -18 25q4 20 26 22l443 76l76 -471l251 444h88l-497 -907h-76l-139 610l-334 -610h-76l-147 643q-23 96 -41 123q-29 45 -105 45q-19 2 -19 17q0 4 1 8z" />
<glyph unicode="x" horiz-adv-x="733" d="M-41 0l328 483l-35 160q-20 96 -39 123q-31 45 -104 45q-23 2 -19 25q4 20 27 22l354 76l74 -336l217 309h90l-283 -411l117 -496h-285l-88 383l-264 -383h-90z" />
<glyph unicode="y" horiz-adv-x="684" d="M-211 -387l107 137h139q90 0 172 144l80 141l-137 608q-23 96 -41 123q-29 45 -105 45q-23 2 -18 25q4 20 26 22l412 76l106 -471l250 444h88l-495 -907q-98 -180 -178 -264q-119 -123 -258 -123h-148z" />
<glyph unicode="z" horiz-adv-x="765" d="M-80 0l17 88l612 731h-244q-100 0 -142 -29.5t-57 -113.5q-6 -23 -28 -23q-20 0 -19 23l41 231h750l-16 -90l-598 -711h473l-19 -106h-770z" />
<glyph unicode="{" horiz-adv-x="1054" d="M262 455l12 61q213 66 244 232q4 33 2 174q-4 111 8 182q25 133 170 229q137 93 293 99l-10 -64q-102 -23 -168 -98q-57 -66 -72 -150q-12 -70 -16 -160t-14 -149q-37 -209 -326 -326q215 -113 215 -274q0 -25 -4 -51q-10 -59 -39 -150q-45 -143 -45 -207 q0 -164 158 -200l-11 -64q-143 6 -247.5 87t-104.5 198q0 72 58 225q63 164 63 209q0 143 -166 197z" />
<glyph unicode="|" horiz-adv-x="630" d="M98 -348l340 1927h94l-339 -1927h-95z" />
<glyph unicode="}" horiz-adv-x="1054" d="M72 -461l10 64q100 23 166 96q57 68 71 151q14 72 19 160q2 57 12 150q35 199 328 325q-217 100 -217 271q0 27 4 55.5t41 149.5q43 145 43 206q0 162 -156 201l10 64q141 -6 244 -84q109 -84 109 -203q0 -70 -58 -223q-63 -166 -63 -213q0 -136 164 -193l-13 -61 q-90 -27 -153 -84q-74 -66 -88 -148q-4 -33 -2 -174q4 -111 -8 -182q-25 -133 -170 -229q-137 -92 -293 -99z" />
<glyph unicode="~" horiz-adv-x="1124" d="M86 293q61 340 258 340q51 0 154 -64l227 -141q76 -47 94 -47q59 0 96 203h160q-29 -154 -74 -230q-68 -111 -196 -110q-59 0 -156 61l-223 141q-68 43 -84 43q-41 0 -66 -57q-14 -35 -32 -139h-158z" />
<glyph unicode="&#xa2;" horiz-adv-x="806" d="M31 332q0 51 10 108q37 207 162 334q121 121 299 144l24 143h88l-24 -137q139 0 230 -70t91 -174q0 -19 -4 -37h-202q6 31 6 57q0 158 -131 158l-129 -729q37 -20 90 -20q125 0 254 81l-17 -98q-141 -113 -354 -112l-31 -177h-88l33 183q-307 43 -307 346zM309 442 q0 -133 66 -241l112 633q-125 -78 -170 -306q-8 -43 -8 -86z" />
<glyph unicode="&#xa3;" horiz-adv-x="1067" d="M-16 0l211 530h-107l18 107h130l67 174q150 387 414 465h342q-94 -23 -176 -78q-195 -129 -295 -387l-68 -174h121l-18 -107h-144l-168 -424h482l-19 -106h-790z" />
<glyph unicode="&#xa4;" horiz-adv-x="1167" d="M12 369l21 114l96 15q0 41 6 84l-88 -15l21 113l86 14q57 268 219 426q182 176 469 176q428 0 428 -225q0 -26 -6 -55h-267q4 23 4 45q0 147 -190 147q-272 0 -365 -465l660 113l-21 -113l-659 -112q-6 -45 -10 -84l655 112l-20 -114l-643 -109q-4 -348 290 -348 q217 0 346 82l-20 -121q-190 -70 -401 -69q-451 0 -492 409z" />
<glyph unicode="&#xa5;" horiz-adv-x="966" d="M92 1194q4 23 27 23l342 61l219 -492l375 490h121l-437 -569l-22 -132h180l-16 -90h-181l-16 -88h180l-16 -92h-180l-54 -305h-284l53 305h-199l17 92h198l17 88h-199l16 90h199l2 17l-201 467q-27 61 -43 82q-29 29 -79 28q-23 2 -19 25z" />
<glyph unicode="&#xa7;" horiz-adv-x="950" d="M2 205q0 20 4 45h215q-18 -180 174 -180q63 0 112.5 32.5t59.5 90.5q8 53 -39 94q-25 18 -96 53l-190 92q-152 74 -152 191q0 18 4 39q20 119 166 215q-66 53 -65 129q0 18 4 36q23 127 141 195q106 59 258 59q332 0 332 -233q0 -19 -2 -37h-209q4 23 4 43 q0 137 -150 137q-59 0 -106 -28q-55 -33 -66 -88q-8 -47 43 -86q20 -14 88 -50l136 -67q193 -96 192 -217q0 -129 -158 -244q72 -53 72 -135q0 -18 -2 -41q-25 -137 -154 -207q-113 -63 -286 -63q-145 0 -234 55q-96 59 -96 170zM238 723q-8 -51 38 -88q16 -12 93 -49 l270 -135q37 39 43 45q29 36 35 75q10 53 -33 86q-4 4 -90 48l-272 137q-31 -29 -46 -47q-33 -37 -38 -72z" />
<glyph unicode="&#xa8;" d="M20 1147q8 49 48.5 82t89.5 33q47 0 73.5 -33t18.5 -82q-8 -45 -47 -79t-86 -34q-49 0 -77 33t-20 80zM346 1147q8 49 48 82t89 33q47 0 73.5 -33t18.5 -82q-8 -45 -47 -79t-86 -34q-49 0 -76.5 33t-19.5 80z" />
<glyph unicode="&#xa9;" horiz-adv-x="720" d="M35 987q0 135 108.5 234.5t245.5 99.5q109 0 180.5 -67.5t71.5 -170.5q0 -133 -109.5 -234t-244.5 -101q-109 0 -180.5 68.5t-71.5 170.5zM104 999q0 -82 55.5 -134t139.5 -52q104 0 189 78t85 180q0 80 -56 132t-140 52q-104 0 -188.5 -76.5t-84.5 -179.5zM178 985 q0 23 4 51q31 176 191 176q128 1 116 -77h-73q8 53 -54 53q-76 0 -100 -139q-8 -49 -8 -76q0 -90 78 -90q63 0 94 22l-6 -35q-37 -16 -109 -16q-133 0 -133 131z" />
<glyph unicode="&#xab;" horiz-adv-x="763" d="M72 457l272 356h119l-180 -356l57 -346h-119zM360 457l273 356h119l-181 -356l58 -346h-119z" />
<glyph unicode="&#xad;" horiz-adv-x="878" d="M115 389l28 162h650l-29 -162h-649z" />
<glyph unicode="&#xae;" horiz-adv-x="720" d="M35 987q0 135 108.5 234.5t245.5 99.5q109 0 180.5 -67.5t71.5 -170.5q0 -133 -109.5 -234t-244.5 -101q-109 0 -180.5 68.5t-71.5 170.5zM104 999q0 -82 55.5 -134t139.5 -52q104 0 189 78t85 180q0 80 -56 132t-140 52q-104 0 -188.5 -76.5t-84.5 -179.5zM211 874 l47 265q8 41 -27 41q-4 0 -6 2q0 8 6 8h144q51 0 89 -20.5t30 -63.5q-12 -72 -103 -92l62 -140h-76l-62 136h-12l-24 -136h-68zM307 1036h35q70 0 82 68q10 63 -59 63h-35z" />
<glyph unicode="&#xaf;" d="M20 1034l21 127h537l-21 -127h-537z" />
<glyph unicode="&#xb0;" horiz-adv-x="667" d="M115 1063q0 98 78.5 171t177.5 73q78 0 131 -49.5t53 -124.5q0 -96 -81 -171t-177 -75q-80 0 -131 51t-51 125zM217 1098q-8 -47 20.5 -80t75.5 -33q49 0 89.5 33t48.5 80q8 45 -21 77.5t-76 32.5q-49 0 -89 -32.5t-48 -77.5z" />
<glyph unicode="&#xb1;" horiz-adv-x="1124" d="M18 -219l21 123h895l-21 -123h-895zM127 397l20 123h369l64 363h157l-63 -363h368l-20 -123h-369l-71 -397h-158l72 397h-369z" />
<glyph unicode="&#xb4;" d="M152 1032l114 324h219l-219 -324h-114z" />
<glyph unicode="&#xb6;" horiz-adv-x="1054" d="M207 737q0 41 8 84q39 227 246 350q174 104 401 105h219l-12 -70h-111l-290 -1644h-70l291 1644h-117l-291 -1644h-69l147 829q-135 16 -229 88q-123 94 -123 258z" />
<glyph unicode="&#xb7;" horiz-adv-x="493" d="M96 432q0 74 55.5 128t129.5 54q59 0 97 -35.5t38 -91.5q0 -74 -58.5 -129t-132.5 -55q-57 0 -93 37t-36 92z" />
<glyph unicode="&#xb8;" d="M147 -453l13 78q35 -20 96 -20q119 0 137 102q2 18 2 33q0 72 -63 72q-35 0 -53 -29h-93l103 229h112l-61 -135q55 12 66 12q125 0 124 -122q0 -23 -6 -50q-16 -98 -110 -149q-74 -39 -160 -39q-63 0 -107 18z" />
<glyph unicode="&#xbb;" horiz-adv-x="763" d="M55 111l183 356l-60 346h121l150 -346l-273 -356h-121zM344 111l180 356l-57 346h119l149 -346l-272 -356h-119z" />
<glyph unicode="&#xc0;" horiz-adv-x="1071" d="M-145 0l538 985q27 53 27 94q0 74 -96 74q-23 2 -19 25q4 20 27 22l440 76l238 -1276h-297l-74 395h-455l-211 -395h-118zM233 483h392l-101 535zM498 1678h219v-324h-115z" />
<glyph unicode="&#xc1;" horiz-adv-x="1071" d="M-145 0l538 985q27 53 27 94q0 74 -96 74q-23 2 -19 25q4 20 27 22l440 76l238 -1276h-297l-74 395h-455l-211 -395h-118zM233 483h392l-101 535zM535 1354l114 324h219l-219 -324h-114z" />
<glyph unicode="&#xc2;" horiz-adv-x="1071" d="M-145 0l538 985q27 53 27 94q0 74 -96 74q-23 2 -19 25q4 20 27 22l440 76l238 -1276h-297l-74 395h-455l-211 -395h-118zM233 483h392l-101 535zM314 1390l204 232q43 47 60 59q31 23 76 23q47 0 69 -23q8 -8 35 -57l127 -234h-106l-150 154l-209 -154h-106z" />
<glyph unicode="&#xc3;" horiz-adv-x="1071" d="M-145 0l538 985q27 53 27 94q0 74 -96 74q-23 2 -19 25q4 20 27 22l440 76l238 -1276h-297l-74 395h-455l-211 -395h-118zM233 483h392l-101 535zM336 1356q14 72 59 144q61 94 139 94q33 0 84 -31q33 -20 66 -41l41 -29q23 -14 39 -14q66 0 84 105h100q-16 -92 -61 -158 q-59 -84 -144 -84q-41 0 -122.5 57.5t-98.5 57.5q-29 0 -53.5 -30t-32.5 -71h-100z" />
<glyph unicode="&#xc4;" horiz-adv-x="1015" d="M-145 0l538 985q27 53 27 94q0 74 -96 74q-23 2 -19 25q4 20 27 22l440 76l238 -1276h-297l-74 395h-455l-211 -395h-118zM233 483h392l-101 535zM266 1469q8 49 48.5 82t89.5 33q47 0 73.5 -33t18.5 -82q-8 -45 -47 -79t-86 -34q-49 0 -77 33t-20 80zM592 1469 q8 49 48 82t89 33q47 0 73.5 -33t18.5 -82q-8 -45 -47 -79t-86 -34q-49 0 -76.5 33t-19.5 80z" />
<glyph unicode="&#xc5;" horiz-adv-x="1046" d="M-145 0l538 985q27 53 27 94q0 74 -96 74q-23 2 -19 25q4 20 27 22l440 76l238 -1276h-297l-74 395h-455l-211 -395h-118zM233 483h392l-101 535zM455 1523q0 88 70.5 157t160.5 69q70 0 115 -45t45 -115q0 -88 -69.5 -156.5t-159.5 -68.5q-70 0 -116 45t-46 114z M543 1556q-8 -45 18.5 -76.5t71.5 -31.5q43 0 81 31.5t46 76.5t-18.5 77t-71.5 32q-43 0 -81 -32t-46 -77z" />
<glyph unicode="&#xc6;" horiz-adv-x="1503" d="M-117 0l789 1069q51 70 51 107q0 53 -121 53q-16 0 -16 14q0 4 2 10q8 20 33 23h911v-234q-2 -23 -23 -22q-23 0 -24 22q0 84 -37 115t-137 31h-269v-477h396l-15 -88h-381v-533h451l-16 -90h-707l4 395h-483l-289 -395h-119zM356 483h420l-14 553z" />
<glyph unicode="&#xc7;" horiz-adv-x="1058" d="M4 465q0 88 16 188q51 285 216 453q184 190 483 190q426 0 426 -225q0 -26 -4 -55h-267q4 23 5 45q0 147 -193 147q-283 0 -373 -508q-31 -174 -30 -272q0 -340 292 -340q215 0 347 82l-23 -121q-190 -70 -401 -69q-244 0 -369 124.5t-125 360.5zM391 -457l13 78 q35 -20 96 -20q119 0 137 102q2 18 2 33q0 72 -63 72q-35 0 -53 -29h-93l103 229h112l-61 -135q55 12 66 12q125 0 124 -122q0 -23 -6 -50q-16 -98 -110 -149q-74 -39 -160 -39q-63 0 -107 18z" />
<glyph unicode="&#xc8;" horiz-adv-x="897" d="M12 0l172 975q6 37 6 63q0 111 -118 111q-23 0 -19 25q4 20 27 22l440 80h490l-41 -234q-6 -23 -27 -22q-23 0 -20 22q4 31 4 52q0 53 -34 73.5t-118 20.5h-266q-2 -14 -86 -477h381l-15 -88h-380l-93 -517h488l-19 -106h-772zM426 1678h219v-324h-115z" />
<glyph unicode="&#xc9;" horiz-adv-x="897" d="M12 0l172 975q6 37 6 63q0 111 -118 111q-23 0 -19 25q4 20 27 22l440 80h490l-41 -234q-6 -23 -27 -22q-23 0 -20 22q4 31 4 52q0 53 -34 73.5t-118 20.5h-266q-2 -14 -86 -477h381l-15 -88h-380l-93 -517h488l-19 -106h-772zM424 1370l114 324h219l-219 -324h-114z" />
<glyph unicode="&#xca;" horiz-adv-x="897" d="M12 0l172 975q6 37 6 63q0 111 -118 111q-23 0 -19 25q4 20 27 22l440 80h490l-41 -234q-6 -23 -27 -22q-23 0 -20 22q4 31 4 52q0 53 -34 73.5t-118 20.5h-266q-2 -14 -86 -477h381l-15 -88h-380l-93 -517h488l-19 -106h-772zM365 1390l204 232q43 47 60 59q31 23 76 23 q47 0 69 -23q8 -8 35 -57l127 -234h-106l-150 154l-209 -154h-106z" />
<glyph unicode="&#xcb;" horiz-adv-x="897" d="M12 0l172 975q6 37 6 63q0 111 -118 111q-23 0 -19 25q4 20 27 22l440 80h490l-41 -234q-6 -23 -27 -22q-23 0 -20 22q4 31 4 52q0 53 -34 73.5t-118 20.5h-266q-2 -14 -86 -477h381l-15 -88h-380l-93 -517h488l-19 -106h-772zM331 1469q8 49 48.5 82t89.5 33 q47 0 73.5 -33t18.5 -82q-8 -45 -47 -79t-86 -34q-49 0 -77 33t-20 80zM657 1469q8 49 48 82t89 33q47 0 73.5 -33t18.5 -82q-8 -45 -47 -79t-86 -34q-49 0 -76.5 33t-19.5 80z" />
<glyph unicode="&#xcc;" horiz-adv-x="428" d="M61 0l175 981q4 37 4 63q0 109 -119 109q-23 2 -19 25q4 20 27 22l442 76l-225 -1276h-285zM219 1698h219v-324h-115z" />
<glyph unicode="&#xcd;" horiz-adv-x="428" d="M61 0l175 981q4 37 4 63q0 109 -119 109q-23 2 -19 25q4 20 27 22l442 76l-225 -1276h-285zM295 1374l114 324h219l-219 -324h-114z" />
<glyph unicode="&#xce;" horiz-adv-x="428" d="M61 0l175 981q4 37 4 63q0 109 -119 109q-23 2 -19 25q4 20 27 22l442 76l-225 -1276h-285zM111 1376l204 232q43 47 60 59q31 23 76 23q47 0 69 -23q8 -8 35 -57l127 -234h-106l-150 154l-209 -154h-106z" />
<glyph unicode="&#xcf;" horiz-adv-x="428" d="M61 0l175 981q4 37 4 63q0 109 -119 109q-23 2 -19 25q4 20 27 22l442 76l-225 -1276h-285zM90 1489q8 49 48.5 82t89.5 33q47 0 73.5 -33t18.5 -82q-8 -45 -47 -79t-86 -34q-49 0 -77 33t-20 80zM416 1489q8 49 48 82t89 33q47 0 73.5 -33t18.5 -82q-8 -45 -47 -79 t-86 -34q-49 0 -76.5 33t-19.5 80z" />
<glyph unicode="&#xd1;" horiz-adv-x="1132" d="M61 0l172 973q6 37 6 63q0 109 -118 109q-23 0 -19 24q4 20 27 23l465 84l418 -897l157 897h99l-226 -1276h-207l-481 1102l-194 -1102h-99zM379 1390q14 72 59 144q61 94 139 94q33 0 84 -31q33 -20 66 -41l41 -29q23 -14 39 -14q66 0 84 105h100q-16 -92 -61 -158 q-59 -84 -144 -84q-41 0 -122.5 57.5t-98.5 57.5q-29 0 -53.5 -30t-32.5 -71h-100z" />
<glyph unicode="&#xd2;" horiz-adv-x="1099" d="M8 479q0 82 17 168q41 231 200 422q190 227 443 227q215 0 327 -151q98 -131 99 -342q-1 -78 -15 -156q-47 -270 -205 -454q-182 -213 -440 -213q-215 0 -328 151q-98 131 -98 348zM281 377q0 -287 174 -287q242 0 340 557q33 184 32 297q0 274 -174 275 q-244 0 -344 -572q-29 -158 -28 -270zM574 1678h219v-324h-115z" />
<glyph unicode="&#xd3;" horiz-adv-x="1099" d="M8 479q0 82 17 168q41 231 200 422q190 227 443 227q215 0 327 -151q98 -131 99 -342q-1 -78 -15 -156q-47 -270 -205 -454q-182 -213 -440 -213q-215 0 -328 151q-98 131 -98 348zM281 377q0 -287 174 -287q242 0 340 557q33 184 32 297q0 274 -174 275 q-244 0 -344 -572q-29 -158 -28 -270zM588 1354l114 324h219l-219 -324h-114z" />
<glyph unicode="&#xd4;" horiz-adv-x="1099" d="M8 479q0 82 17 168q41 231 200 422q190 227 443 227q215 0 327 -151q98 -131 99 -342q-1 -78 -15 -156q-47 -270 -205 -454q-182 -213 -440 -213q-215 0 -328 151q-98 131 -98 348zM281 377q0 -287 174 -287q242 0 340 557q33 184 32 297q0 274 -174 275 q-244 0 -344 -572q-29 -158 -28 -270zM426 1356l204 232q43 47 60 59q31 23 76 23q47 0 69 -23q8 -8 35 -57l127 -234h-106l-150 154l-209 -154h-106z" />
<glyph unicode="&#xd5;" horiz-adv-x="1099" d="M8 479q0 82 17 168q41 231 200 422q190 227 443 227q215 0 327 -151q98 -131 99 -342q-1 -78 -15 -156q-47 -270 -205 -454q-182 -213 -440 -213q-215 0 -328 151q-98 131 -98 348zM281 377q0 -287 174 -287q242 0 340 557q33 184 32 297q0 274 -174 275 q-244 0 -344 -572q-29 -158 -28 -270zM432 1356q14 72 59 144q61 94 139 94q33 0 84 -31q33 -20 66 -41l41 -29q23 -14 39 -14q66 0 84 105h100q-16 -92 -61 -158q-59 -84 -144 -84q-41 0 -122.5 57.5t-98.5 57.5q-29 0 -53.5 -30t-32.5 -71h-100z" />
<glyph unicode="&#xd6;" horiz-adv-x="1058" d="M33 479q0 82 17 168q41 231 200 422q190 227 443 227q215 0 327 -151q98 -131 99 -342q-1 -78 -15 -156q-47 -270 -205 -454q-182 -213 -440 -213q-215 0 -328 151q-98 131 -98 348zM306 377q0 -287 174 -287q242 0 340 557q33 184 32 297q0 274 -174 275 q-244 0 -344 -572q-29 -158 -28 -270zM368 1507q8 49 48.5 82t89.5 33q47 0 73.5 -33t18.5 -82q-8 -45 -47 -79t-86 -34q-49 0 -77 33t-20 80zM694 1507q8 49 48 82t89 33q47 0 73.5 -33t18.5 -82q-8 -45 -47 -79t-86 -34q-49 0 -76.5 33t-19.5 80z" />
<glyph unicode="&#xd8;" horiz-adv-x="1099" d="M-37 -74l148 201q-98 133 -99 352q0 82 15 168q41 231 200 422q190 227 443 227q152 0 254 -77l73 100h76l-102 -139q125 -135 125 -381q-1 -76 -15 -152q-47 -270 -204 -454q-182 -213 -439 -213q-182 0 -286 102l-113 -156h-76zM281 354l534 719q-29 145 -160 146 q-244 0 -344 -572q-31 -170 -30 -293zM287 260q27 -203 164 -203q242 0 346 590q36 211 30 340z" />
<glyph unicode="&#xd9;" horiz-adv-x="1091" d="M106 1176q4 20 27 22l440 76l-135 -760q-27 -156 -26 -221q0 -195 190 -197q195 -2 287 115q66 82 98 260l141 805h109l-139 -784q-43 -246 -127 -351q-127 -162 -414 -161q-430 0 -430 333q0 49 10 107l101 559q4 37 4 63q0 109 -117 109q-23 2 -19 25zM641 1678h219 v-324h-115z" />
<glyph unicode="&#xda;" horiz-adv-x="1091" d="M106 1176q4 20 27 22l440 76l-135 -760q-27 -156 -26 -221q0 -195 190 -197q195 -2 287 115q66 82 98 260l141 805h109l-139 -784q-43 -246 -127 -351q-127 -162 -414 -161q-430 0 -430 333q0 49 10 107l101 559q4 37 4 63q0 109 -117 109q-23 2 -19 25zM650 1354 l114 324h219l-219 -324h-114z" />
<glyph unicode="&#xdb;" horiz-adv-x="1091" d="M106 1176q4 20 27 22l440 76l-135 -760q-27 -156 -26 -221q0 -195 190 -197q195 -2 287 115q66 82 98 260l141 805h109l-139 -784q-43 -246 -127 -351q-127 -162 -414 -161q-430 0 -430 333q0 49 10 107l101 559q4 37 4 63q0 109 -117 109q-23 2 -19 25zM527 1366 l204 232q43 47 60 59q31 23 76 23q47 0 69 -23q8 -8 35 -57l127 -234h-106l-150 154l-209 -154h-106z" />
<glyph unicode="&#xdc;" horiz-adv-x="1132" d="M106 1176q4 20 27 22l440 76l-135 -760q-27 -156 -26 -221q0 -195 190 -197q195 -2 287 115q66 82 98 260l141 805h109l-139 -784q-43 -246 -127 -351q-127 -162 -414 -161q-430 0 -430 333q0 49 10 107l101 559q4 37 4 63q0 109 -117 109q-23 2 -19 25zM438 1507 q8 49 48.5 82t89.5 33q47 0 73.5 -33t18.5 -82q-8 -45 -47 -79t-86 -34q-49 0 -77 33t-20 80zM764 1507q8 49 48 82t89 33q47 0 73.5 -33t18.5 -82q-8 -45 -47 -79t-86 -34q-49 0 -76.5 33t-19.5 80z" />
<glyph unicode="&#xdd;" horiz-adv-x="966" d="M92 1194q4 23 27 23l342 59l229 -488l369 488h117l-439 -584l-123 -692h-284l104 592l-201 467q-27 61 -43 82q-29 29 -79 28q-23 2 -19 25zM512 1354l114 324h219l-219 -324h-114z" />
<glyph unicode="&#xdf;" horiz-adv-x="940" d="M-76 0l148 831q31 176 147 304q150 162 381 161q152 0 260 -71q119 -78 119 -205q0 -22 -4 -47q-23 -123 -144 -197q-53 -33 -194 -80q297 -57 297 -282q0 -33 -6 -68q-35 -199 -199 -293q-125 -74 -301 -73q-76 0 -139 18l18 104q43 -29 111 -28q182 0 231 272 q14 78 15 133q0 98 -50 139q-43 35 -141 35l14 78q111 0 168 115q49 94 50 215q0 172 -123 172q-106 0 -158 -111q-31 -70 -68 -278l-149 -844h-283z" />
<glyph unicode="&#xe0;" horiz-adv-x="899" d="M4 350q0 51 10 105q33 188 169 318t315 130q131 0 166 -102l14 82l293 51l-164 -934h-285l10 61q-37 -45 -69 -61q-41 -20 -121 -20q-166 0 -256 110q-82 100 -82 260zM281 293q0 -203 135 -203q121 0 174 293l12 72q23 127 23 196q0 150 -82 150q-184 0 -246 -346 q-16 -92 -16 -162zM365 1303h219v-324h-115z" />
<glyph unicode="&#xe1;" horiz-adv-x="882" d="M-4 350q0 51 10 105q33 188 169 318t315 130q131 0 166 -102l14 82l293 51l-164 -934h-285l10 61q-37 -45 -69 -61q-41 -20 -121 -20q-166 0 -256 110q-82 100 -82 260zM273 293q0 -203 135 -203q121 0 174 293l12 72q23 127 23 196q0 150 -82 150q-184 0 -246 -346 q-16 -92 -16 -162zM365 979l114 324h219l-219 -324h-114z" />
<glyph unicode="&#xe2;" horiz-adv-x="894" d="M4 350q0 51 10 105q33 188 169 318t315 130q131 0 166 -102l14 82l293 51l-164 -934h-285l10 61q-37 -45 -69 -61q-41 -20 -121 -20q-166 0 -256 110q-82 100 -82 260zM193 981l204 232q43 47 60 59q31 23 76 23q47 0 69 -23q8 -8 35 -57l127 -234h-106l-150 154 l-209 -154h-106zM281 293q0 -203 135 -203q121 0 174 293l12 72q23 127 23 196q0 150 -82 150q-184 0 -246 -346q-16 -92 -16 -162z" />
<glyph unicode="&#xe3;" horiz-adv-x="903" d="M4 350q0 51 10 105q33 188 169 318t315 130q131 0 166 -102l14 82l293 51l-164 -934h-285l10 61q-37 -45 -69 -61q-41 -20 -121 -20q-166 0 -256 110q-82 100 -82 260zM199 981q14 72 59 144q61 94 139 94q33 0 84 -31q33 -20 66 -41l41 -29q23 -14 39 -14q66 0 84 105 h100q-16 -92 -61 -158q-59 -84 -144 -84q-41 0 -122.5 57.5t-98.5 57.5q-29 0 -53.5 -30t-32.5 -71h-100zM281 293q0 -203 135 -203q121 0 174 293l12 72q23 127 23 196q0 150 -82 150q-184 0 -246 -346q-16 -92 -16 -162z" />
<glyph unicode="&#xe4;" horiz-adv-x="890" d="M4 350q0 51 10 105q33 188 169 318t315 130q131 0 166 -102l14 82l293 51l-164 -934h-285l10 61q-37 -45 -69 -61q-41 -20 -121 -20q-166 0 -256 110q-82 100 -82 260zM223 1094q8 49 48.5 82t89.5 33q47 0 73.5 -33t18.5 -82q-8 -45 -47 -79t-86 -34q-49 0 -77 33 t-20 80zM281 293q0 -203 135 -203q121 0 174 293l12 72q23 127 23 196q0 150 -82 150q-184 0 -246 -346q-16 -92 -16 -162zM549 1094q8 49 48 82t89 33q47 0 73.5 -33t18.5 -82q-8 -45 -47 -79t-86 -34q-49 0 -76.5 33t-19.5 80z" />
<glyph unicode="&#xe5;" horiz-adv-x="868" d="M-2 350q0 51 10 105q33 188 169 318t315 130q131 0 166 -102l14 82l293 51l-164 -934h-285l10 61q-37 -45 -69 -61q-41 -20 -121 -20q-166 0 -256 110q-82 100 -82 260zM275 293q0 -203 135 -203q121 0 174 293l12 72q23 127 23 196q0 150 -82 150q-184 0 -246 -346 q-16 -92 -16 -162zM322 1093q0 88 70.5 157t160.5 69q70 0 115 -45t45 -115q0 -88 -69.5 -156.5t-159.5 -68.5q-70 0 -116 45t-46 114zM410 1126q-8 -45 18.5 -76.5t71.5 -31.5q43 0 81 31.5t46 76.5t-18.5 77t-71.5 32q-43 0 -81 -32t-46 -77z" />
<glyph unicode="&#xe6;" horiz-adv-x="1400" d="M-33 350q0 51 10 105q33 188 169.5 318t314.5 130q129 0 164 -102l14 82l287 51l-13 -64q160 53 209 54q160 0 242 -115q71 -101 61 -242l-569 -116q-6 -37 -6 -74q0 -113 51 -187q61 -86 168 -86q129 0 258 86l-18 -98q-143 -113 -353 -112q-102 0 -188 59l-8 -39h-277 l13 61q-39 -45 -70 -61q-43 -20 -121 -20q-166 0 -256 110q-82 100 -82 260zM242 289q0 -207 135 -207q121 0 174 301l14 72q20 127 21 196q0 150 -82 150q-184 0 -244 -346q-18 -94 -18 -166zM860 528l371 76q4 33 4 64q0 190 -135 190q-168 0 -240 -330z" />
<glyph unicode="&#xe7;" horiz-adv-x="839" d="M13 332q0 51 10 108q41 231 192 361q145 123 357 123q137 0 229 -70t92 -174q0 -19 -4 -37h-203q6 31 6 57q0 158 -133 158q-176 0 -239 -330q-12 -63 -13 -125q0 -129 54 -208q57 -86 161 -86q125 0 259 108l-21 -129q-137 -109 -354 -108q-184 0 -288.5 90t-104.5 262z M286 -453l13 78q35 -20 96 -20q119 0 137 102q2 18 2 33q0 72 -63 72q-35 0 -53 -29h-93l103 229h112l-61 -135q55 12 66 12q125 0 124 -122q0 -23 -6 -50q-16 -98 -110 -149q-74 -39 -160 -39q-63 0 -107 18z" />
<glyph unicode="&#xe8;" horiz-adv-x="829" d="M-4 332q0 51 10 108q41 231 192 361q145 123 357 123q162 0 244 -115q71 -101 61 -242l-569 -116q-6 -35 -7 -72q0 -113 54 -186q59 -84 168 -84q127 0 260 110l-25 -131q-135 -109 -352 -108q-182 0 -287.5 90t-105.5 262zM273 1303h219v-324h-115zM303 528l373 76 q2 33 2 64q0 190 -133 190q-170 0 -242 -330z" />
<glyph unicode="&#xe9;" horiz-adv-x="870" d="M-12 332q0 51 10 108q41 231 192 361q145 123 357 123q162 0 244 -115q71 -101 61 -242l-569 -116q-6 -35 -7 -72q0 -113 54 -186q59 -84 168 -84q127 0 260 110l-25 -131q-135 -109 -352 -108q-182 0 -287.5 90t-105.5 262zM295 528l373 76q2 33 2 64q0 190 -133 190 q-170 0 -242 -330zM320 979l114 324h219l-219 -324h-114z" />
<glyph unicode="&#xea;" horiz-adv-x="870" d="M-12 332q0 51 10 108q41 231 192 361q145 123 357 123q162 0 244 -115q71 -101 61 -242l-569 -116q-6 -35 -7 -72q0 -113 54 -186q59 -84 168 -84q127 0 260 110l-25 -131q-135 -109 -352 -108q-182 0 -287.5 90t-105.5 262zM136 981l204 232q43 47 60 59q31 23 76 23 q47 0 69 -23q8 -8 35 -57l127 -234h-106l-150 154l-209 -154h-106zM295 528l373 76q2 33 2 64q0 190 -133 190q-170 0 -242 -330z" />
<glyph unicode="&#xeb;" horiz-adv-x="870" d="M-12 332q0 51 10 108q41 231 192 361q145 123 357 123q162 0 244 -115q71 -101 61 -242l-569 -116q-6 -35 -7 -72q0 -113 54 -186q59 -84 168 -84q127 0 260 110l-25 -131q-135 -109 -352 -108q-182 0 -287.5 90t-105.5 262zM180 1094q8 49 48.5 82t89.5 33 q47 0 73.5 -33t18.5 -82q-8 -45 -47 -79t-86 -34q-49 0 -77 33t-20 80zM295 528l373 76q2 33 2 64q0 190 -133 190q-170 0 -242 -330zM506 1094q8 49 48 82t89 33q47 0 73.5 -33t18.5 -82q-8 -45 -47 -79t-86 -34q-49 0 -76.5 33t-19.5 80z" />
<glyph unicode="&#xec;" horiz-adv-x="448" d="M25 836q4 20 26 22l441 76l-164 -934h-285l113 639q8 45 8 76q0 55 -27.5 75.5t-93.5 20.5q-23 2 -18 25zM115 1303h219v-324h-115z" />
<glyph unicode="&#xed;" horiz-adv-x="448" d="M25 836q4 20 26 22l441 76l-164 -934h-285l113 639q8 45 8 76q0 55 -27.5 75.5t-93.5 20.5q-23 2 -18 25zM111 979l114 324h219l-219 -324h-114z" />
<glyph unicode="&#xee;" horiz-adv-x="456" d="M-75 981l204 232q43 47 60 59q31 23 76 23q47 0 69 -23q8 -8 35 -57l127 -234h-106l-150 154l-209 -154h-106zM33 836q4 20 26 22l441 76l-164 -934h-285l113 639q8 45 8 76q0 55 -27.5 75.5t-93.5 20.5q-23 2 -18 25z" />
<glyph unicode="&#xef;" horiz-adv-x="456" d="M33 836q4 20 26 22l441 76l-164 -934h-285l113 639q8 45 8 76q0 55 -27.5 75.5t-93.5 20.5q-23 2 -18 25zM55 1094q8 49 48.5 82t89.5 33q47 0 73.5 -33t18.5 -82q-8 -45 -47 -79t-86 -34q-49 0 -77 33t-20 80zM381 1094q8 49 48 82t89 33q47 0 73.5 -33t18.5 -82 q-8 -45 -47 -79t-86 -34q-49 0 -76.5 33t-19.5 80z" />
<glyph unicode="&#xf1;" horiz-adv-x="1044" d="M-7 836q4 20 27 22l442 76l-22 -121q109 90 305 90q141 0 217 -98q61 -82 62 -199q0 -30 -4 -57l-99 -549h-284l98 555q16 96 16 137q0 119 -98 119q-102 0 -171 -74.5t-87 -185.5l-98 -551h-285l113 639q8 45 8 76q0 55 -28 75.5t-93 20.5q-23 2 -19 25zM307 981 q14 72 59 144q61 94 139 94q33 0 84 -31q33 -20 66 -41l41 -29q23 -14 39 -14q66 0 84 105h100q-16 -92 -61 -158q-59 -84 -144 -84q-41 0 -122.5 57.5t-98.5 57.5q-29 0 -53.5 -30t-32.5 -71h-100z" />
<glyph unicode="&#xf2;" horiz-adv-x="948" d="M-12 332q0 51 10 108q41 231 195 361q145 123 358 123q182 0 286.5 -94.5t104.5 -272.5q0 -56 -10 -117q-39 -221 -187.5 -340.5t-361.5 -119.5q-182 0 -288.5 91t-106.5 261zM260 256q0 -166 143 -166q121 0 181 117q34 67 63 233q27 152 27 224q0 182 -137 182 q-121 0 -185 -137q-37 -80 -69 -269q-23 -125 -23 -184zM387 1303h219v-324h-115z" />
<glyph unicode="&#xf3;" horiz-adv-x="948" d="M-12 332q0 51 10 108q41 231 195 361q145 123 358 123q182 0 286.5 -94.5t104.5 -272.5q0 -56 -10 -117q-39 -221 -187.5 -340.5t-361.5 -119.5q-182 0 -288.5 91t-106.5 261zM260 256q0 -166 143 -166q121 0 181 117q34 67 63 233q27 152 27 224q0 182 -137 182 q-121 0 -185 -137q-37 -80 -69 -269q-23 -125 -23 -184zM404 979l114 324h219l-219 -324h-114z" />
<glyph unicode="&#xf4;" horiz-adv-x="948" d="M-12 332q0 51 10 108q41 231 195 361q145 123 358 123q182 0 286.5 -94.5t104.5 -272.5q0 -56 -10 -117q-39 -221 -187.5 -340.5t-361.5 -119.5q-182 0 -288.5 91t-106.5 261zM250 981l204 232q43 47 60 59q31 23 76 23q47 0 69 -23q8 -8 35 -57l127 -234h-106l-150 154 l-209 -154h-106zM260 256q0 -166 143 -166q121 0 181 117q34 67 63 233q27 152 27 224q0 182 -137 182q-121 0 -185 -137q-37 -80 -69 -269q-23 -125 -23 -184z" />
<glyph unicode="&#xf5;" horiz-adv-x="956" d="M-12 332q0 51 10 108q41 231 195 361q145 123 358 123q182 0 286.5 -94.5t104.5 -272.5q0 -56 -10 -117q-39 -221 -187.5 -340.5t-361.5 -119.5q-182 0 -288.5 91t-106.5 261zM236 981q14 72 59 144q61 94 139 94q33 0 84 -31q33 -20 66 -41l41 -29q23 -14 39 -14 q66 0 84 105h100q-16 -92 -61 -158q-59 -84 -144 -84q-41 0 -122.5 57.5t-98.5 57.5q-29 0 -53.5 -30t-32.5 -71h-100zM260 256q0 -166 143 -166q121 0 181 117q34 67 63 233q27 152 27 224q0 182 -137 182q-121 0 -185 -137q-37 -80 -69 -269q-23 -125 -23 -184z" />
<glyph unicode="&#xf6;" horiz-adv-x="950" d="M-12 332q0 51 10 108q41 231 195 361q145 123 358 123q182 0 286.5 -94.5t104.5 -272.5q0 -56 -10 -117q-39 -221 -187.5 -340.5t-361.5 -119.5q-182 0 -288.5 91t-106.5 261zM260 256q0 -166 143 -166q121 0 181 117q34 67 63 233q27 152 27 224q0 182 -137 182 q-121 0 -185 -137q-37 -80 -69 -269q-23 -125 -23 -184zM284 1094q8 49 48.5 82t89.5 33q47 0 73.5 -33t18.5 -82q-8 -45 -47 -79t-86 -34q-49 0 -77 33t-20 80zM610 1094q8 49 48 82t89 33q47 0 73.5 -33t18.5 -82q-8 -45 -47 -79t-86 -34q-49 0 -76.5 33t-19.5 80z" />
<glyph unicode="&#xf7;" horiz-adv-x="1124" d="M104 397l21 123h895l-21 -123h-895zM385 125q10 51 51 86t90 35q47 0 77 -35t22 -82q-10 -49 -51.5 -83t-88.5 -34q-49 0 -78.5 33t-21.5 80zM502 784q8 51 49 86t90 35t77.5 -35t20.5 -84q-8 -47 -49 -81.5t-90 -34.5q-47 0 -76.5 33.5t-21.5 80.5z" />
<glyph unicode="&#xf8;" horiz-adv-x="970" d="M6 -20l107 108q-86 92 -86 244q0 51 10 108q41 231 192 361q145 123 359 123q111 0 248 -80l55 59h76q-18 -20 -86 -92q98 -88 98 -254q0 -56 -10 -117q-39 -221 -187.5 -340.5t-361.5 -119.5q-164 0 -266 71q-20 -18 -72 -71h-76zM297 201q6 -158 135 -158 q119 0 184 139q37 80 68 258q23 132 27 193q-113 -115 -414 -432zM297 283l410 426q-18 150 -132 149q-121 0 -184 -143q-37 -82 -72 -275q-8 -51 -22 -157z" />
<glyph unicode="&#xf9;" horiz-adv-x="1085" d="M-12 836q4 20 27 22l442 76l-105 -590q-16 -96 -16 -137q0 -119 98 -119q102 0 174 78q66 72 84 180l52 293q8 45 8 76q0 55 -27.5 75.5t-95.5 20.5q-23 2 -18 25q4 20 26 22l445 76l-166 -934h-285l12 70q-90 -88 -303 -88q-143 0 -217 98q-61 80 -61 196q0 31 4 60 l53 303q8 45 8 76q0 55 -27.5 75.5t-93.5 20.5q-23 2 -18 25zM426 1303h219v-324h-115z" />
<glyph unicode="&#xfa;" horiz-adv-x="1062" d="M-35 836q4 20 27 22l442 76l-105 -590q-16 -96 -16 -137q0 -119 98 -119q102 0 174 78q66 72 84 180l52 293q8 45 8 76q0 55 -27.5 75.5t-95.5 20.5q-23 2 -18 25q4 20 26 22l445 76l-166 -934h-285l12 70q-90 -88 -303 -88q-143 0 -217 98q-61 80 -61 196q0 31 4 60 l53 303q8 45 8 76q0 55 -27.5 75.5t-93.5 20.5q-23 2 -18 25zM482 979l114 324h219l-219 -324h-114z" />
<glyph unicode="&#xfb;" horiz-adv-x="1095" d="M-2 836q4 20 27 22l442 76l-105 -590q-16 -96 -16 -137q0 -119 98 -119q102 0 174 78q66 72 84 180l52 293q8 45 8 76q0 55 -27.5 75.5t-95.5 20.5q-23 2 -18 25q4 20 26 22l445 76l-166 -934h-285l12 70q-90 -88 -303 -88q-143 0 -217 98q-61 80 -61 196q0 31 4 60 l53 303q8 45 8 76q0 55 -27.5 75.5t-93.5 20.5q-23 2 -18 25zM267 981l204 232q43 47 60 59q31 23 76 23q47 0 69 -23q8 -8 35 -57l127 -234h-106l-150 154l-209 -154h-106z" />
<glyph unicode="&#xfc;" horiz-adv-x="1079" d="M-18 836q4 20 27 22l442 76l-105 -590q-16 -96 -16 -137q0 -119 98 -119q102 0 174 78q66 72 84 180l52 293q8 45 8 76q0 55 -27.5 75.5t-95.5 20.5q-23 2 -18 25q4 20 26 22l445 76l-166 -934h-285l12 70q-90 -88 -303 -88q-143 0 -217 98q-61 80 -61 196q0 31 4 60 l53 303q8 45 8 76q0 55 -27.5 75.5t-93.5 20.5q-23 2 -18 25zM284 1094q8 49 48.5 82t89.5 33q47 0 73.5 -33t18.5 -82q-8 -45 -47 -79t-86 -34q-49 0 -77 33t-20 80zM610 1094q8 49 48 82t89 33q47 0 73.5 -33t18.5 -82q-8 -45 -47 -79t-86 -34q-49 0 -76.5 33t-19.5 80z " />
<glyph unicode="&#xfd;" horiz-adv-x="755" d="M-211 -387l107 137h139q90 0 172 144l80 141l-137 608q-23 96 -41 123q-29 45 -105 45q-23 2 -18 25q4 20 26 22l412 76l106 -471l250 444h88l-495 -907q-98 -180 -178 -264q-119 -123 -258 -123h-148zM281 1032l114 324h219l-219 -324h-114z" />
<glyph unicode="&#xff;" horiz-adv-x="755" d="M-211 -387l107 137h139q90 0 172 144l80 141l-137 608q-23 96 -41 123q-29 45 -105 45q-23 2 -18 25q4 20 26 22l412 76l106 -471l250 444h88l-495 -907q-98 -180 -178 -264q-119 -123 -258 -123h-148zM333 1112q8 49 48.5 82t89.5 33q47 0 73.5 -33t18.5 -82 q-8 -45 -47 -79t-86 -34q-49 0 -77 33t-20 80zM659 1112q8 49 48 82t89 33q47 0 73.5 -33t18.5 -82q-8 -45 -47 -79t-86 -34q-49 0 -76.5 33t-19.5 80z" />
<glyph unicode="&#x152;" horiz-adv-x="1558" d="M-14 479q0 82 16 168q41 231 201 422q188 227 440 227q84 0 145 -20h867l-41 -234q-6 -23 -27 -22q-23 0 -20 22q4 31 4 52q0 53 -34 73.5t-120 20.5h-266l-84 -477h381l-14 -88h-381l-95 -533h488l-16 -90h-773l7 39q-119 -59 -254 -59q-215 0 -326 149q-98 133 -98 350 zM256 354q0 -297 168 -297q244 0 348 590q31 180 31 293q0 279 -174 279q-242 0 -342 -572q-31 -172 -31 -293z" />
<glyph unicode="&#x153;" horiz-adv-x="1488" d="M-8 332q0 51 10 108q41 231 193 361q145 123 356 123q193 0 309 -129q166 129 354 129q162 0 244 -115q72 -101 62 -242l-570 -116q-6 -35 -6 -72q0 -113 53 -186q59 -84 168 -84q127 0 254 81l-16 -98q-141 -113 -354 -112q-209 0 -312 110q-139 -111 -352 -110 q-182 0 -287.5 90t-105.5 262zM260 229q0 -186 137 -186q119 0 185 139q34 80 67 258q27 156 27 230q0 188 -135 188q-121 0 -185 -143q-39 -82 -71 -275q-25 -141 -25 -211zM963 528l372 76q2 33 2 64q0 190 -133 190q-170 0 -241 -330z" />
<glyph unicode="&#x178;" horiz-adv-x="966" d="M92 1194q4 23 27 23l342 59l229 -488l369 488h117l-439 -584l-123 -692h-284l104 592l-201 467q-27 61 -43 82q-29 29 -79 28q-23 2 -19 25zM481 1469q8 49 48.5 82t89.5 33q47 0 73.5 -33t18.5 -82q-8 -45 -47 -79t-86 -34q-49 0 -77 33t-20 80zM807 1469q8 49 48 82 t89 33q47 0 73.5 -33t18.5 -82q-8 -45 -47 -79t-86 -34q-49 0 -76.5 33t-19.5 80z" />
<glyph unicode="&#x2c6;" d="M-14 1034l204 232q43 47 60 59q31 23 76 23q47 0 69 -23q8 -8 35 -57l127 -234h-106l-150 154l-209 -154h-106z" />
<glyph unicode="&#x2dc;" d="M-8 1034q14 72 59 144q61 94 139 94q33 0 84 -31q33 -20 66 -41l41 -29q23 -14 39 -14q66 0 84 105h100q-16 -92 -61 -158q-59 -84 -144 -84q-41 0 -122.5 57.5t-98.5 57.5q-29 0 -53.5 -30t-32.5 -71h-100z" />
<glyph unicode="&#x2000;" horiz-adv-x="874" />
<glyph unicode="&#x2001;" horiz-adv-x="1749" />
<glyph unicode="&#x2002;" horiz-adv-x="874" />
<glyph unicode="&#x2003;" horiz-adv-x="1749" />
<glyph unicode="&#x2004;" horiz-adv-x="583" />
<glyph unicode="&#x2005;" horiz-adv-x="437" />
<glyph unicode="&#x2006;" horiz-adv-x="291" />
<glyph unicode="&#x2007;" horiz-adv-x="291" />
<glyph unicode="&#x2008;" horiz-adv-x="218" />
<glyph unicode="&#x2009;" horiz-adv-x="349" />
<glyph unicode="&#x200a;" horiz-adv-x="97" />
<glyph unicode="&#x2010;" horiz-adv-x="878" d="M115 389l28 162h650l-29 -162h-649z" />
<glyph unicode="&#x2011;" horiz-adv-x="878" d="M115 389l28 162h650l-29 -162h-649z" />
<glyph unicode="&#x2012;" horiz-adv-x="878" d="M115 389l28 162h650l-29 -162h-649z" />
<glyph unicode="&#x2013;" horiz-adv-x="1054" d="M100 389l29 160h825l-28 -160h-826z" />
<glyph unicode="&#x2014;" horiz-adv-x="1370" d="M102 389l29 160h1137l-29 -160h-1137z" />
<glyph unicode="&#x2018;" horiz-adv-x="477" d="M70 885q0 14 2 26q18 102 258 389h90l-162 -231q57 0 94 -37t37 -92q0 -74 -56.5 -128t-127.5 -54q-59 0 -97 36.5t-38 90.5z" />
<glyph unicode="&#x2019;" horiz-adv-x="411" d="M10 752l162 231q-57 0 -93 37t-36 92q0 72 55.5 126t126.5 54q59 0 97 -35.5t38 -91.5q0 -12 -2 -26q-18 -100 -256 -387h-92z" />
<glyph unicode="&#x201a;" horiz-adv-x="493" d="M76 -254l162 231q-57 0 -93 37t-36 92q0 72 55 127.5t127 55.5q59 0 97 -37t38 -90q0 -15 -2 -27q-18 -102 -256 -389h-92z" />
<glyph unicode="&#x201c;" horiz-adv-x="841" d="M70 885q0 14 2 26q18 102 258 389h90l-162 -231q57 0 94 -37t37 -92q0 -74 -56.5 -128t-127.5 -54q-59 0 -97 36.5t-38 90.5zM420 885q0 14 2 26q18 102 256 389h92l-162 -231q57 0 93 -37t36 -92q0 -72 -55 -127t-127 -55q-59 0 -97 36.5t-38 90.5z" />
<glyph unicode="&#x201d;" horiz-adv-x="841" d="M76 752l162 231q-57 0 -93 37t-36 92q0 72 55 126t127 54q59 0 97 -35.5t38 -91.5q0 -12 -2 -26q-18 -100 -256 -387h-92zM426 752l162 231q-57 0 -94 37t-37 92q0 72 56 126t128 54q57 0 96 -35.5t39 -91.5q0 -14 -2 -26q-18 -100 -258 -387h-90z" />
<glyph unicode="&#x201e;" horiz-adv-x="841" d="M76 -254l162 231q-57 0 -93 37t-36 92q0 72 55 127.5t127 55.5q59 0 97 -37t38 -90q0 -15 -2 -27q-18 -102 -256 -389h-92zM426 -254l162 231q-57 0 -94 37t-37 92q0 74 56 128.5t128 54.5q57 0 96 -37t39 -92q0 -13 -2 -25q-18 -102 -258 -389h-90z" />
<glyph unicode="&#x2022;" horiz-adv-x="948" d="M125 625q0 158 125 280.5t285 122.5q125 0 205.5 -82t80.5 -203q0 -158 -124.5 -279.5t-284.5 -121.5q-123 0 -205 81t-82 202z" />
<glyph unicode="&#x2026;" horiz-adv-x="1335" d="M88 106q0 72 55.5 127.5t126.5 55.5q59 0 97.5 -37t38.5 -90q0 -74 -58.5 -129.5t-130.5 -55.5q-57 0 -93 37t-36 92zM504 106q0 72 56 127.5t128 55.5q59 0 97 -37t38 -90q0 -74 -59 -129.5t-131 -55.5q-57 0 -93 37t-36 92zM922 106q0 72 56 127.5t128 55.5 q59 0 97 -37t38 -90q0 -74 -59 -129.5t-131 -55.5q-57 0 -93 37t-36 92z" />
<glyph unicode="&#x202f;" horiz-adv-x="349" />
<glyph unicode="&#x2039;" horiz-adv-x="526" d="M68 457l292 356h121l-182 -356l59 -346h-120z" />
<glyph unicode="&#x203a;" horiz-adv-x="526" d="M47 111l180 356l-57 346h119l170 -346l-293 -356h-119z" />
<glyph unicode="&#x205f;" horiz-adv-x="437" />
<glyph unicode="&#x20ac;" horiz-adv-x="1167" d="M12 369l21 114l96 15q0 41 6 84l-88 -15l21 113l86 14q57 268 219 426q182 176 469 176q428 0 428 -225q0 -26 -6 -55h-267q4 23 4 45q0 147 -190 147q-272 0 -365 -465l660 113l-21 -113l-659 -112q-6 -45 -10 -84l655 112l-20 -114l-643 -109q-4 -348 290 -348 q217 0 346 82l-20 -121q-190 -70 -401 -69q-451 0 -492 409z" />
<glyph unicode="&#x2122;" horiz-adv-x="798" d="M72 1217l10 59h258l-10 -59q-2 -6 -6 -7q-8 0 -9 7q6 37 -36 36h-37l-54 -309h-71l53 309h-33q-47 0 -53 -36q-2 -6 -4 -7q-8 0 -8 7zM332 944l47 273q8 49 -29 49q-4 0 -2 6q0 4 4 4h117l66 -250l122 250h86l-57 -332h-74l52 295l-150 -295h-35l-71 293l-52 -293h-24z " />
<glyph unicode="&#xe000;" horiz-adv-x="931" d="M0 0v932h932v-932h-932z" />
<glyph unicode="&#xfb01;" horiz-adv-x="921" d="M6 0l146 829h-123l14 78h123l18 103q20 121 138 215q125 102 286 102q152 0 228 -45h10q59 0 97 -36t38 -91q0 -74 -58.5 -129t-134.5 -55q-55 0 -90.5 36.5t-35.5 92.5q0 53 36 104q-23 59 -88 60q-96 0 -133 -211l-26 -146h325l174 27l-164 -934h-284l112 639 q8 49 9 88q0 102 -60 102h-127l-145 -829h-285z" />
<glyph unicode="&#xfb02;" horiz-adv-x="940" d="M4 0l146 829h-123l14 78h123l18 103q20 121 137 215q125 102 287 102q96 0 168 -20l266 45l-237 -1352h-285l195 1104q4 25 4 47q0 113 -109 113q-63 0 -98 -72q-18 -41 -37 -139l-24 -146h174l-15 -78h-174l-145 -829h-285z" />
</font>
</defs>
</svg>
