<?xml version="1.0" standalone="no"?>
<!DOCTYPE svg PUBLIC "-//W3C//DTD SVG 1.1//EN" "http://www.w3.org/Graphics/SVG/1.1/DTD/svg11.dtd" >
<svg xmlns="http://www.w3.org/2000/svg">
<metadata></metadata>
<defs>
<font id="serif_blackitalicserifBlkIt" horiz-adv-x="598" >
<font-face units-per-em="2048" ascent="1638" descent="-410" />
<missing-glyph horiz-adv-x="487" />
<glyph horiz-adv-x="2048" />
<glyph horiz-adv-x="2048" />
<glyph unicode="&#xd;" horiz-adv-x="487" />
<glyph unicode=" "  horiz-adv-x="487" />
<glyph unicode="&#x09;" horiz-adv-x="487" />
<glyph unicode="&#xa0;" horiz-adv-x="487" />
<glyph unicode="!" horiz-adv-x="577" d="M186 123q0 80 60.5 139.5t140.5 59.5q70 0 115 -50t35 -120q-12 -72 -73 -123.5t-132 -51.5q-63 0 -104.5 42t-41.5 104zM311 391l99 918h288l-217 -918h-170z" />
<glyph unicode="&#x22;" horiz-adv-x="843" d="M217 754l158 231q-53 8 -86 48t-33 95q0 78 59.5 137.5t137.5 59.5q66 0 108.5 -41t42.5 -102q0 -13 -2 -27q-18 -113 -260 -401h-125zM573 754l160 231q-53 8 -87 48t-34 95q0 78 60.5 137.5t138.5 59.5q63 0 106.5 -41t43.5 -102q-1 -13 -3 -27q-18 -113 -260 -401 h-125z" />
<glyph unicode="#" horiz-adv-x="1124" d="M158 2l159 377h-153l57 141h156l69 162h-155l59 141h156l162 381h184l-164 -381h123l162 381h184l-164 -381h154l-60 -141h-153l-68 -162h154l-59 -141h-156l-158 -377h-184l160 377h-123l-158 -377h-184zM561 520h121l70 162h-123z" />
<glyph unicode="$" horiz-adv-x="1124" d="M68 227q0 16 4 33l2 16h297q0 -88 20 -120q27 -41 109 -58l84 527q-178 55 -244 94q-127 78 -127 205q0 23 4 47q47 303 477 352l23 143h162l-23 -143q180 -16 268 -70q125 -73 119 -233h-299q4 82 -10 117q-23 49 -98 59l-78 -489q84 -25 241 -95q141 -86 142 -231 q0 -25 -4 -53q-51 -326 -496 -357l-27 -172h-161l26 172q-147 8 -258 60q-154 72 -153 196zM520 907q0 -106 84 -151l70 438q-119 -29 -148 -199q-6 -51 -6 -88zM662 98q136 31 167 221q8 45 9 80q0 119 -101 179z" />
<glyph unicode="%" horiz-adv-x="1816" d="M166 834q0 41 8 86q31 203 164 309q123 98 313 98q352 0 353 -315q-1 -43 -7 -92q-33 -197 -161.5 -302.5t-313.5 -105.5q-164 0 -260 83t-96 239zM430 705q14 -106 105 -107q96 0 147 123q22 60 45 199q18 125 18 170q0 154 -108 153q-98 0 -148 -125q-20 -55 -43 -198 q-25 -150 -16 -215zM590 2l678 1309h164l-678 -1309h-164zM1012 301q0 41 6 86q33 205 166 309q123 100 313 101q164 0 254 -78q98 -82 98 -240q0 -43 -8 -92q-31 -195 -160 -301t-315 -106q-162 0 -258 83.5t-96 237.5zM1276 174q14 -106 104 -106q96 0 146 122 q23 60 43 197q20 127 20 172q0 152 -106 152q-98 0 -148 -125q-20 -53 -43.5 -199.5t-15.5 -212.5z" />
<glyph unicode="&#x26;" horiz-adv-x="1474" d="M176 326q0 27 4 53q37 242 326 319q-154 80 -154 246q0 25 6 53q25 156 193 250q145 82 319 82q428 0 428 -242q0 -20 -4 -43l-2 -14h-301l2 14q8 53 -16 93q-35 59 -131 59q-102 0 -141 -68q-20 -35 -39 -151q-2 -16 -2 -33q0 -88 77 -133q61 -35 140 -35h10l49 -153 h-25q-381 0 -415 -220q-4 -29 -4 -53q0 -195 307 -194q115 0 282 114l-227 672h166l193 -567q112 100 227 237l-35 -213q-57 -72 -149 -151l83 -246l-163 -4l-54 160q-223 -178 -454 -178q-201 0 -340 86q-156 96 -156 260z" />
<glyph unicode="'" horiz-adv-x="493" d="M217 754l158 231q-53 8 -86 48t-33 95q0 78 59.5 137.5t137.5 59.5q66 0 108.5 -41t42.5 -102q0 -13 -2 -27q-18 -113 -260 -401h-125z" />
<glyph unicode="(" d="M162 172q0 100 51 426q43 274 68 365q53 199 157 311q128 139 353 178l-19 -109q-166 -55 -254 -364q-25 -84 -72 -383q-18 -92 -34 -184q-23 -141 -23 -246q0 -260 146 -326l-17 -102q-356 43 -356 434z" />
<glyph unicode=")" d="M-2 -262l16 102q125 49 203 209q57 121 92 305q16 121 35 242q49 313 49 416q0 279 -141 331l18 109q354 -66 355 -444q0 -107 -47 -410q-45 -281 -66 -358q-53 -209 -158 -328q-131 -150 -356 -174z" />
<glyph unicode="*" horiz-adv-x="546" d="M170 1112l20 125l287 -63zM186 1051l277 159l-203 -252zM223 1298l109 88l119 -253zM317 936l111 295l16 -295h-127zM358 1174l310 61l-21 -125zM371 1133l207 253l73 -90zM385 1212l227 -163l-104 -91zM395 1413h125l-110 -299z" />
<glyph unicode="+" horiz-adv-x="1112" d="M223 569l31 193h348l53 336h211l-53 -336h346l-31 -193h-346l-55 -354h-211l55 354h-348z" />
<glyph unicode="," horiz-adv-x="452" d="M16 -254l160 234q-53 8 -87 48t-34 95q0 78 60.5 138.5t138.5 60.5q63 0 106 -41t43 -103q0 -14 -2 -26q-18 -115 -260 -406h-125z" />
<glyph unicode="-" horiz-adv-x="878" d="M176 391l31 193h680l-31 -193h-680z" />
<glyph unicode="." horiz-adv-x="421" d="M96 123q0 78 59.5 138.5t139.5 60.5q63 0 106 -41t43 -103q0 -80 -62 -140.5t-142 -60.5q-63 0 -103.5 42t-40.5 104z" />
<glyph unicode="/" horiz-adv-x="667" d="M-16 -252l686 1692h184l-688 -1692h-182z" />
<glyph unicode="0" horiz-adv-x="1075" d="M100 510q0 76 13 154q37 236 196 430q190 236 453 235q227 0 346 -164q100 -139 100 -360q0 -69 -10 -141q-43 -274 -201 -463q-182 -221 -450 -221q-227 0 -344 161q-102 141 -103 369zM403 391q0 -301 162 -301q226 1 318 574q27 172 26 278q0 279 -166 279 q-227 0 -315 -557q-25 -158 -25 -273z" />
<glyph unicode="1" horiz-adv-x="516" d="M102 1151q4 33 37 37h2l359 121h147l-207 -1307h-315l158 995q2 20 2 37q0 57 -45 70q-20 8 -107 8h-6q-31 6 -25 39z" />
<glyph unicode="2" horiz-adv-x="780" d="M-18 2l22 150q174 135 385 397q236 297 262 461q4 29 4 53q0 133 -137 133q-88 0 -143 -55q-43 -43 -51 -97l-2 -14h-142l2 14q14 92 111 179q117 106 285 106q172 0 274 -65q115 -74 115 -217q0 -31 -4 -64q-49 -299 -705 -799h336q96 0 131 26t47 101v6q12 35 45 35 q39 0 33 -41l-49 -309h-819z" />
<glyph unicode="3" horiz-adv-x="909" d="M45 47l25 158q143 -86 241 -86q344 0 389 284q4 29 5 54q0 166 -224 166h-135l23 153h137q176 0 209 201q6 41 6 72q0 147 -160 147q-94 0 -147 -59q-37 -39 -45 -93l-2 -14h-144l2 14q18 106 123 191q117 94 273 94q158 0 276 -72q135 -82 135 -217q0 -20 -2 -43 q-33 -203 -244 -299q227 -70 228 -264q0 -27 -4 -55q-31 -186 -226 -299q-174 -100 -393 -100q-160 0 -346 67z" />
<glyph unicode="4" horiz-adv-x="954" d="M37 330l18 121l746 858h235l-129 -813h154l-27 -166h-153l-52 -328h-307l51 328h-536zM262 496h338l72 456z" />
<glyph unicode="5" horiz-adv-x="827" d="M-10 47l24 156q168 -84 246 -84q276 0 324 301q6 43 6 84q0 199 -141 198q-172 0 -283 -131h-123l307 738h647l-59 -142h-334l-135 -327q53 10 113 10q154 0 238.5 -87t84.5 -241q0 -47 -8 -96q-31 -195 -213 -324q-174 -123 -387 -122q-141 0 -307 67z" />
<glyph unicode="6" horiz-adv-x="952" d="M45 336q0 57 12 123l86 424q39 195 219 323q172 123 383 123q152 1 308 -67l-25 -156q-168 86 -244 86q-279 0 -346 -320q78 63 176 64q193 0 304.5 -97.5t111.5 -279.5q0 -47 -8 -100q-37 -238 -193 -363q-145 -117 -366 -116q-190 0 -299 88q-119 92 -119 268zM350 256 q0 -180 129 -180q117 0 174 147q27 63 54.5 237.5t17.5 250.5q-16 129 -125 129q-115 0 -174 -148q-27 -70 -53 -233q-23 -147 -23 -203z" />
<glyph unicode="7" horiz-adv-x="745" d="M47 2l612 1174h-253q-96 0 -132 -27t-49 -102v-7q-12 -31 -45 -30q-37 0 -33 37l43 262h814l-21 -121l-616 -1186h-320z" />
<glyph unicode="8" horiz-adv-x="905" d="M35 281q0 31 4 63q43 266 309 346q-168 70 -168 244q0 29 4 59q27 168 162 256q123 80 313 80q172 0 269 -65q106 -72 106 -207q0 -31 -6 -64q-35 -221 -262 -303q209 -68 209 -276q0 -33 -6 -70q-29 -178 -176 -276q-139 -92 -349 -93q-186 0 -294 76q-115 82 -115 230z M338 158q18 -90 121 -90q104 0 151 90q32 53 52 186q16 98 16 143q0 147 -129 148q-102 0 -152 -92q-29 -57 -51 -199q-20 -131 -8 -186zM457 821q16 -84 108 -84q94 0 140 88q25 49 43 168q14 86 14 125q0 125 -117 125q-92 0 -133 -76q-27 -47 -46.5 -171t-8.5 -175z" />
<glyph unicode="9" horiz-adv-x="952" d="M86 47l25 156q168 -84 245 -84q281 0 346 321q-86 -66 -176 -65q-193 0 -301 94q-115 98 -114 281q0 47 8 100q39 238 192 362q145 117 367 117q190 0 301 -86q119 -94 119 -268q-1 -59 -15 -125l-88 -424q-39 -197 -219 -324q-172 -123 -383 -122q-141 0 -307 67z M418 598q16 -127 123 -127q115 0 174 145q28 70 53 234q25 150 25 203q0 182 -131 182q-117 0 -175 -150q-25 -63 -52 -236t-17 -251z" />
<glyph unicode=":" horiz-adv-x="497" d="M127 123q0 78 60.5 138.5t140.5 60.5q63 0 106 -41t43 -103q0 -80 -63.5 -140.5t-143.5 -60.5q-61 0 -102 42t-41 104zM209 635q0 78 60.5 138.5t138.5 60.5q66 0 108.5 -41t42.5 -103q0 -80 -63.5 -139t-143.5 -59q-63 0 -103 40.5t-40 102.5z" />
<glyph unicode=";" horiz-adv-x="473" d="M72 -254l159 234q-55 8 -88.5 48t-33.5 95q0 80 60 139.5t140 59.5q63 0 106.5 -41t43.5 -103q0 -14 -2 -26q-18 -115 -262 -406h-123zM190 635q0 80 60.5 139.5t138.5 59.5q66 0 109 -41t43 -103q0 -80 -63.5 -139t-143.5 -59q-63 0 -103.5 40.5t-40.5 102.5z" />
<glyph unicode="&#x3c;" horiz-adv-x="843" d="M109 307l18 111l770 313l-27 -168l-514 -201l451 -202l-27 -166z" />
<glyph unicode="=" horiz-adv-x="1124" d="M143 274l25 156h926l-25 -156h-926zM182 522l25 154h926l-25 -154h-926z" />
<glyph unicode="&#x3e;" horiz-adv-x="843" d="M59 -6l27 166l514 202l-450 201l26 168l672 -311l-19 -115z" />
<glyph unicode="?" horiz-adv-x="878" d="M207 123q0 80 60.5 139.5t140.5 59.5q63 0 106 -41t43 -103q0 -80 -63.5 -140.5t-143.5 -60.5q-63 0 -103 42t-40 104zM219 1018q66 311 432 311q147 0 241.5 -66.5t94.5 -185.5q0 -24 -4 -49q-25 -152 -197 -291l-188 -153q-55 -45 -70.5 -71t-25.5 -89l-6 -43h-158 l22 139q18 121 60 176q18 25 141 129q88 78 115 111q55 68 55 145q0 127 -100 127q-119 0 -160 -190h-252z" />
<glyph unicode="@" horiz-adv-x="1638" d="M178 580q0 66 10 135q49 309 309.5 524t600.5 215q250 0 418 -119q190 -137 190 -379q0 -51 -8 -104q-43 -276 -279 -442q-178 -127 -327 -127q-109 0 -95 106h-4q-113 -106 -223 -106q-115 0 -193.5 74.5t-78.5 191.5q0 35 8 72q51 229 187 361t313 132q150 0 217 -131 l18 41l195 57l-193 -497q-10 -25 -24 -70q-6 -31 24 -31q88 0 168 86q94 100 121 277q8 41 8 80q0 182 -154 270q-121 70 -317 70q-250 0 -444 -166q-186 -162 -224 -385q-8 -51 -8 -101q0 -201 124 -325.5t329 -124.5q319 0 493 129h174q-266 -317 -698 -318 q-260 0 -438 152q-199 166 -199 453zM756 545q0 -102 73 -101q152 0 246 246q23 63 23 115q0 109 -94 108q-141 0 -216 -211q-33 -90 -32 -157z" />
<glyph unicode="A" horiz-adv-x="1038" d="M-55 2l526 997q25 51 25 86q0 66 -86 66h-7q-31 6 -26 39q6 37 43 39l459 78l266 -1305h-330l-82 395h-432l-205 -395h-151zM365 516h346l-99 473z" />
<glyph unicode="B" horiz-adv-x="1138" d="M111 2l168 1071q8 41 8 70q0 49 -24.5 68.5t-86.5 19.5h-6q-31 6 -25 39q6 39 43 39h582q197 0 322 -52q172 -70 172 -223q0 -24 -4 -49q-31 -190 -306 -287q274 -72 275 -286q0 -27 -4 -56q-55 -354 -688 -354h-426zM446 139h150q150 0 224.5 57.5t97.5 194.5q4 25 4 49 q0 190 -258 191h-140zM545 752h92q274 0 309 225q4 29 4 53q0 160 -225 160h-113z" />
<glyph unicode="C" horiz-adv-x="917" d="M94 496q0 82 15 174q47 291 210 463q185 196 491 196h3q444 0 444 -244q0 -24 -6 -53l-2 -14h-297l2 14q4 20 4 39q0 139 -180 139q-268 0 -346 -493q-26 -158 -26 -249v-7q0 -340 284 -340q211 0 363 96l-25 -162q-200 -75 -412 -75h-6q-254 0 -385 134t-131 382z" />
<glyph unicode="D" horiz-adv-x="1142" d="M111 2l168 1071q8 41 8 70q0 49 -24.5 68.5t-86.5 19.5h-6q-31 6 -25 39q6 39 43 39h564q268 0 395 -86q158 -106 158 -371q-1 -89 -19 -195q-66 -416 -299 -559q-160 -96 -506 -96h-370zM446 139h68q207 0 311.5 115.5t149.5 398.5q24 150 24 237v7q0 147 -67 215 q-74 78 -252 78h-68z" />
<glyph unicode="E" horiz-adv-x="856" d="M111 2l168 1071q8 41 8 70q0 49 -24.5 68.5t-86.5 19.5h-6q-31 6 -25 39q6 39 43 39h932l-41 -250v-6q-10 -31 -43 -31q-41 0 -35 37q6 29 7 47q0 47 -31 65.5t-111 18.5h-252l-4 -27l-67 -420h381l-19 -118h-381l-78 -486h488l-21 -137h-802z" />
<glyph unicode="F" horiz-adv-x="858" d="M176 2l168 1071q8 41 8 70q0 49 -24.5 68.5t-85.5 19.5h-6q-31 6 -25 39q6 39 43 39h932l-41 -250v-6q-10 -31 -43 -31q-41 0 -35 37q6 29 6 47q0 47 -30.5 65.5t-110.5 18.5h-254l-70 -447h381l-18 -118h-381l-98 -623h-316z" />
<glyph unicode="G" horiz-adv-x="1040" d="M76 510q0 76 12 154q37 236 197 430q189 235 450 235h2q178 0 293 -55q143 -66 144 -201q0 -20 -5 -43l-2 -14h-293l3 14q2 14 2 27q0 54 -39 98q-49 55 -125 55q-139 0 -221 -190q-53 -123 -91 -356q-24 -141 -24 -244v-8q0 -293 166 -297h6q104 0 229 67l49 318 q6 37 7 61q0 96 -109 96h-6q-31 6 -27 39q6 41 45 41h443l-117 -747q-25 6 -115 45q-70 31 -116 31q-57 0 -152.5 -42t-157.5 -42h-11q-219 0 -335 159q-102 141 -102 369z" />
<glyph unicode="H" horiz-adv-x="1193" d="M111 2l159 1010q4 29 4 53q0 102 -108 102q-2 0 -6 2q-31 4 -25 39t43 37l457 80l-92 -582h452l90 566h314l-207 -1307h-313l98 623h-453l-98 -623h-315z" />
<glyph unicode="I" horiz-adv-x="477" d="M160 2l157 1004q6 33 7 57q0 102 -109 102h-6q-31 6 -25 41t41 37l459 78l-209 -1319h-315z" />
<glyph unicode="J" horiz-adv-x="468" d="M-123 -401l19 118h143q68 0 115 299l155 992q6 33 6 57q0 102 -108 102h-6q-31 6 -25 39q4 37 41 39l459 78l-207 -1307q-27 -162 -143 -282q-131 -135 -308 -135h-141z" />
<glyph unicode="K" horiz-adv-x="1024" d="M143 2l158 1006q6 31 6 55q0 104 -108 104h-6q-31 6 -25 39q4 37 41 39l459 78l-95 -590l625 576h182l-589 -543l413 -764h-383l-280 516l-82 -516h-316z" />
<glyph unicode="L" horiz-adv-x="696" d="M109 0l157 997q4 29 4 54q0 100 -108 100h-6q-31 6 -25 39q6 37 43 39l457 78l-187 -1170h488l-21 -137h-802z" />
<glyph unicode="M" horiz-adv-x="1505" d="M111 2l157 1004q6 41 6 67q0 92 -100 92q-2 0 -6 2q-31 4 -25 39t41 37l459 80l262 -969l488 955h317l-207 -1307h-313l145 922l-473 -922h-182l-277 1034l-163 -1034h-129z" />
<glyph unicode="N" horiz-adv-x="1165" d="M152 2l159 1004q4 35 4 59q0 102 -106 102h-6q-31 6 -25 39q6 37 43 39l459 78l424 -874l137 860h129l-207 -1307h-231l-483 1061l-168 -1061h-129z" />
<glyph unicode="O" horiz-adv-x="1017" d="M100 510q0 76 13 154q37 236 196 430q189 235 451 235h2q227 0 346 -164q100 -139 100 -360q0 -69 -10 -141q-43 -274 -201 -463q-182 -221 -450 -221q-227 0 -344 161q-102 141 -103 369zM406 414q0 -291 163 -291q228 0 314 541q26 166 26 270v8q0 279 -166 279 q-227 0 -315 -557q-22 -139 -22 -241v-9z" />
<glyph unicode="P" horiz-adv-x="937" d="M94 2l168 1071q8 41 8 70q0 49 -24.5 68.5t-85.5 19.5h-6q-31 6 -25 39q6 39 43 39h582q184 0 319 -68q168 -86 168 -244q0 -24 -4 -49q-35 -213 -229 -315q-150 -78 -355 -78h-157l-86 -553h-316zM516 676h92q275 0 316 262q4 31 4 57q0 195 -238 195h-94z" />
<glyph unicode="Q" horiz-adv-x="1075" d="M100 510q0 76 13 154q37 236 196 430q189 235 451 235h2q227 0 346 -164q100 -139 100 -360q0 -69 -10 -141q-35 -217 -145 -388q-123 -190 -308 -260q41 -100 220 -100q31 0 122 16l-20 -139q-117 -26 -183 -26h-5q-215 0 -310.5 47t-126.5 176q-174 35 -264 186 q-78 135 -78 334zM406 414q0 -291 163 -291q228 0 314 541q26 166 26 270v8q0 279 -166 279q-227 0 -315 -557q-22 -139 -22 -241v-9z" />
<glyph unicode="R" horiz-adv-x="1007" d="M94 2l168 1071q8 41 8 68q0 51 -25.5 70.5t-86.5 19.5h-6q-31 6 -25 39q6 39 43 39h584q184 0 319 -68q168 -86 168 -244q0 -24 -4 -49q-47 -295 -379 -370l266 -576h-340l-262 553h-26l-86 -553h-316zM516 676h90q275 0 316 262q4 31 4 57q0 195 -238 195h-92z" />
<glyph unicode="S" horiz-adv-x="837" d="M61 33l25 162q176 -63 330 -64q109 0 162 29q72 39 88 147q1 9 1 17q0 92 -155 188q-197 121 -240 160q-120 105 -120 248q0 33 6 65q25 162 178 254q145 90 356 90q107 0 312 -37l-23 -141q-195 41 -309 41q-166 0 -191 -152q-1 -9 -1 -17q0 -91 157 -181 q193 -111 242 -154q118 -103 118 -250q0 -35 -6 -69q-31 -199 -213 -301q-156 -88 -379 -88q-145 0 -338 53z" />
<glyph unicode="T" horiz-adv-x="798" d="M152 1059l41 250h1015l-41 -250v-6q-10 -31 -43 -31q-41 0 -34 37q6 29 6 47q0 47 -31 65.5t-111 18.5h-116l-187 -1188h-315l186 1188h-114q-94 0 -130 -26.5t-49 -104.5v-6q-12 -31 -45 -31t-33 27q0 4 1 10z" />
<glyph unicode="U" horiz-adv-x="1140" d="M184 1206q6 37 43 39l457 78l-125 -793q-24 -141 -24 -206v-5q0 -190 182 -192q186 0 270 109q61 78 88 251l131 822h140l-127 -801q-41 -250 -125 -358q-129 -170 -426 -170q-449 0 -449 356q0 47 8 100l92 576q4 29 5 53q0 102 -109 102h-6q-26 5 -26 29q0 5 1 10z" />
<glyph unicode="V" horiz-adv-x="999" d="M166 1212q6 35 43 39l414 72l211 -854l444 840h141l-692 -1307h-147l-271 1083q-14 55 -24 66q-20 23 -86 23h-6q-27 5 -27 31v7z" />
<glyph unicode="W" horiz-adv-x="1415" d="M53 1204q6 35 41 37l416 74l213 -848l133 254l-90 364q-14 55 -25 66q-20 23 -88 23h-6q-31 6 -24 38q6 35 43 37l413 74l29 -121l55 107h140l-152 -285l139 -551l439 836h139l-686 -1307h-148l-135 539l-283 -539h-151l-268 1073q-14 57 -25 68q-20 20 -88 20h-6 q-26 5 -26 30q0 5 1 11z" />
<glyph unicode="X" horiz-adv-x="1036" d="M96 2l449 606q-66 152 -199 449q-35 78 -47 90q-31 39 -96 39h-6q-31 6 -25 39q6 37 41 39l367 63l225 -485l344 467h151l-438 -598l326 -709h-373l-213 475l-352 -475h-154z" />
<glyph unicode="Y" horiz-adv-x="884" d="M147 1221q4 35 41 36l367 64l240 -487l350 475h151l-442 -604l-111 -703h-315l94 602l-200 447q-35 78 -48 92q-31 37 -96 37h-6q-26 5 -26 30q0 5 1 11z" />
<glyph unicode="Z" horiz-adv-x="835" d="M-18 2l20 129l791 1059h-326q-96 0 -131 -26.5t-47 -104.5v-6q-12 -31 -45 -31q-39 0 -33 37l41 250h887l-21 -121l-786 -1049h368q94 0 129 25.5t48 101.5q0 2 2 6q10 33 45 33q37 0 30 -39l-41 -264h-931z" />
<glyph unicode="[" horiz-adv-x="632" d="M137 -252l269 1692h440l-19 -119h-139q-57 0 -80 -55q-8 -18 -22 -103l-178 -1134q-16 -106 -13 -129q8 -35 64 -35h137l-18 -117h-441z" />
<glyph unicode="\" horiz-adv-x="667" d="M268 1440h195l139 -1692h-196z" />
<glyph unicode="]" horiz-adv-x="632" d="M33 -252l18 117h139q61 0 82 55q4 12 21 109l178 1134q12 76 12 88q0 70 -63 70h-137l18 119h440l-268 -1692h-440z" />
<glyph unicode="^" horiz-adv-x="774" d="M246 971l280 338h133l177 -338h-177l-92 166l-147 -166h-174z" />
<glyph unicode="_" horiz-adv-x="948" d="M-49 -217l18 125h979l-18 -125h-979z" />
<glyph unicode="`" d="M322 1389h258l6 -355h-144z" />
<glyph unicode="a" horiz-adv-x="892" d="M66 375q0 219 139 385q147 176 362 176q104 0 156 -70l8 45l324 58l-152 -967h-315l4 29q-55 -51 -170 -51q-174 0 -270 120q-86 106 -86 275zM373 324q0 -201 127 -201q106 0 149 276l13 72q18 117 18 184q0 147 -72 148q-168 0 -221 -332q-14 -84 -14 -147z" />
<glyph unicode="b" horiz-adv-x="886" d="M66 -23l172 1096q8 41 8 70q0 49 -24.5 68.5t-86.5 19.5h-6q-31 6 -25 39q4 35 41 37l459 79l-84 -522q76 72 180 72q162 0 258.5 -107.5t96.5 -271.5q0 -221 -144 -393q-151 -184 -370 -184q-78 0 -115 22q-31 14 -53 57zM432 252q0 -129 76 -129q170 0 225 348 q14 86 15 145q0 186 -132 187q-104 0 -153 -305l-17 -99q-14 -100 -14 -147z" />
<glyph unicode="c" horiz-adv-x="757" d="M88 354q0 49 8 103q37 240 193 370q150 129 366 129q143 0 240.5 -74.5t97.5 -185.5q0 -19 -2 -37l-4 -14h-233l4 14q4 27 4 52q0 149 -121 149h-2q-160 0 -215 -315q-10 -57 -10 -113q0 -129 51 -207q55 -84 156 -84q129 0 274 129l-25 -172q-144 -118 -366 -118h-4 q-190 0 -301 97t-111 277z" />
<glyph unicode="d" horiz-adv-x="925" d="M82 375q0 219 139 385q147 176 363 176q104 0 155 -70l33 207q8 43 8 70q0 51 -24.5 69.5t-85.5 18.5h-6q-31 6 -25 39q4 35 41 37l459 79l-219 -1384h-316l4 29q-55 -51 -170 -51q-174 0 -270 120q-86 106 -86 275zM389 324q0 -201 127 -201q106 0 150 276l12 72 q18 117 18 184q0 147 -71 148q-168 0 -222 -332q-14 -84 -14 -147z" />
<glyph unicode="e" horiz-adv-x="821" d="M63 354q0 49 9 103q37 240 192 370q147 129 367 129q164 0 252 -116q70 -93 70 -233q0 -18 -1 -36l-567 -116q-4 -25 -4 -49q0 -111 53 -185q57 -80 162 -80q129 0 276 133l-28 -176q-144 -118 -365 -118h-4q-190 0 -301 97t-111 277zM403 563l336 70q1 18 1 35 q0 192 -126 192q-150 0 -211 -297z" />
<glyph unicode="f" horiz-adv-x="589" d="M109 2l127 809h-123l20 129h123l14 86q20 129 140 227q129 106 297 107q164 0 237 -51q86 -57 86 -197v-6h-244q4 27 5 49q0 111 -86 111q-82 0 -113 -197l-21 -129h232l-21 -129h-231l-127 -809h-315z" />
<glyph unicode="g" horiz-adv-x="909" d="M70 375q0 219 139 385q147 176 362 176q104 0 158 -72l12 72l455 78h6q28 -3 28 -28q0 -4 -1 -9q-6 -41 -42 -41h-3q-76 0 -106.5 -31t-45.5 -127l-121 -760q-27 -164 -143 -284q-129 -135 -307 -135h-330l19 118h331q68 0 115 299l2 17q-55 -53 -170 -53 q-176 0 -272 120q-86 106 -86 275zM379 319q0 -196 126 -196h1q106 0 149 276l13 72q18 117 18 184q0 147 -72 148q-168 0 -221 -332q-14 -88 -14 -152z" />
<glyph unicode="h" horiz-adv-x="1050" d="M70 2l168 1071q8 41 8 70q0 49 -24.5 68.5t-86.5 19.5h-6q-31 6 -25 39q4 35 41 37l459 79l-86 -544q111 94 287 94q152 0 231 -109q66 -86 66 -209q0 -28 -4 -53l-88 -563h-316l84 533q14 94 15 127q0 114 -86 114h-2q-96 0 -160 -74q-59 -66 -76 -172l-84 -528h-315z " />
<glyph unicode="i" horiz-adv-x="454" d="M70 852q6 35 43 37l456 80l-151 -967h-316l103 653q6 43 6 70q0 51 -23.5 69.5t-85.5 18.5h-6q-27 5 -27 30q0 4 1 9zM246 1116q0 80 59.5 139.5t138.5 59.5q63 0 106.5 -41t43.5 -103q0 -80 -62.5 -139t-142.5 -59q-63 0 -103 41t-40 102z" />
<glyph unicode="j" horiz-adv-x="464" d="M-147 -401l18 118h143q68 0 115 299l100 639q6 43 7 70q0 51 -24 69.5t-85 18.5h-6q-31 6 -27 39q6 35 43 37l457 80l-150 -953q-27 -162 -143 -282q-131 -135 -307 -135h-141zM270 1116q0 80 59.5 139.5t139.5 59.5q63 0 106 -41t43 -103q0 -80 -62 -139t-142 -59 q-63 0 -103.5 41t-40.5 102z" />
<glyph unicode="k" horiz-adv-x="913" d="M111 2l168 1071q8 41 8 70q0 49 -24.5 68.5t-86.5 19.5h-6q-31 6 -25 39q4 35 41 37l459 79l-125 -788l461 342h197l-375 -276l293 -662h-365l-225 508l-80 -508h-315z" />
<glyph unicode="l" horiz-adv-x="462" d="M111 2l168 1071q8 41 8 70q0 49 -24.5 68.5t-86.5 19.5h-6q-31 6 -25 39q4 35 41 37l459 79l-219 -1384h-315z" />
<glyph unicode="m" horiz-adv-x="1644" d="M78 852q6 35 43 37l457 80l-17 -107q117 74 285 74q205 0 268 -148q102 147 354 148q154 0 232 -88q67 -77 67 -201q0 -43 -6 -82l-88 -563h-315l90 569q14 94 14 127q0 115 -88 115q-94 0 -157 -74q-59 -66 -78 -172l-88 -565h-316l90 569q14 94 15 127q0 115 -88 115 q-96 0 -160 -74q-59 -66 -78 -172l-88 -565h-315l102 653q6 43 6 70q0 51 -23.5 69.5t-84.5 18.5h-7q-27 5 -27 30q0 4 1 9z" />
<glyph unicode="n" horiz-adv-x="1021" d="M78 852q6 35 43 37l457 80l-17 -107q113 74 285 74q152 0 231 -109q66 -86 66 -209q0 -28 -4 -53l-88 -563h-316l90 569q14 94 15 127q0 115 -88 115q-96 0 -160 -74q-59 -66 -78 -172l-88 -565h-315l102 653q6 43 6 70q0 51 -23.5 69.5t-84.5 18.5h-7q-27 5 -27 30 q0 4 1 9z" />
<glyph unicode="o" horiz-adv-x="899" d="M49 356q0 47 8 101q37 240 195 370q147 129 366 129q190 0 301 -101t111 -288q0 -53 -8 -110q-37 -227 -193 -355q-146 -122 -362 -122h-4q-190 0 -302 97t-112 279zM354 283q0 -160 131 -160q111 0 162 104q33 66 60 230q23 150 22 207q0 184 -129 184q-117 0 -174 -152 q-27 -68 -53 -239q-18 -119 -19 -174z" />
<glyph unicode="p" horiz-adv-x="948" d="M43 -387l164 1042q8 43 8 72q0 49 -24.5 67.5t-86.5 18.5h-6q-31 6 -26 39q6 35 43 37l456 80l-16 -105q76 72 180 72q164 0 262 -109q92 -104 93 -270q0 -221 -142 -393q-152 -184 -373 -184q-88 0 -151 51l-66 -418h-315zM467 254q0 -131 78 -131q168 0 223 348 q14 86 14 145q0 186 -129 187q-106 0 -159 -332l-13 -72q-14 -98 -14 -145z" />
<glyph unicode="q" horiz-adv-x="913" d="M53 375q0 219 140 385q147 176 362 176q104 0 158 -72l8 47l323 58l-213 -1356h-315l68 428q-82 -61 -172 -61q-176 0 -273 120q-86 106 -86 275zM362 319q0 -196 126 -196h1q106 0 150 276l12 72q18 117 19 184q0 147 -72 148q-168 0 -221 -332q-14 -88 -15 -152z" />
<glyph unicode="r" horiz-adv-x="700" d="M78 852q6 35 43 37l457 80l-17 -111q84 104 242 105q26 -1 67 -17l-41 -260q-45 61 -77 62q-125 0 -181 -62q-45 -47 -61 -156l-84 -528h-315l102 653q6 43 6 70q0 51 -23.5 69.5t-84.5 18.5h-7q-27 5 -27 30q0 4 1 9z" />
<glyph unicode="s" horiz-adv-x="729" d="M-8 18l24 152q209 -49 336 -49q185 0 185 66q0 37 -119 104q-182 100 -230 139q-106 84 -106 172q0 12 2 25q23 141 137 223q127 90 344 90q117 0 295 -37l-22 -147q-182 53 -314 53q-49 -1 -93 -21q-48 -22 -48 -47q0 -29 119 -98q170 -100 229 -149q105 -88 105 -174 q0 -12 -2 -23q-25 -164 -177 -246q-129 -71 -329 -71h-6q-137 0 -330 38z" />
<glyph unicode="t" horiz-adv-x="557" d="M106 811l21 129h147l29 172l322 57l-37 -229h194l-20 -129h-195l-80 -512q-10 -61 -10 -90q0 -49 25.5 -67.5t95.5 -18.5q20 0 88 8l-22 -133q-104 -18 -146 -18q-358 0 -358 210q0 23 4 50l90 571h-148z" />
<glyph unicode="u" horiz-adv-x="1013" d="M102 852q6 35 43 37l457 80l-96 -609q-14 -94 -14 -127q0 -112 86 -112h2q94 0 159 72q59 66 78 169l45 293q6 43 6 70q0 51 -24.5 69.5t-85.5 18.5h-6q-31 6 -27 39q6 35 43 37l459 80l-152 -967h-315l8 51q-109 -71 -280 -71h-5q-154 0 -233 106q-63 86 -64 209 q0 29 4 55l48 303q6 43 6 70q0 51 -23.5 69.5t-85.5 18.5h-6q-27 5 -27 32v7z" />
<glyph unicode="v" horiz-adv-x="708" d="M78 852q6 35 43 37l450 80l82 -445l226 416h118l-493 -938h-96l-162 651q-23 90 -35 111q-31 49 -100 49h-7q-27 5 -27 30q0 4 1 9z" />
<glyph unicode="w" horiz-adv-x="1251" d="M61 852q6 35 43 37l451 80l82 -445l119 217q-29 72 -113 72h-6q-31 6 -27 39q6 35 43 37l453 80l80 -445l225 416h121l-496 -938h-96l-145 582l-308 -582h-96l-162 651q-23 90 -34 111q-31 49 -101 49h-6q-27 5 -27 32v7z" />
<glyph unicode="x" horiz-adv-x="733" d="M16 2l330 498l-35 153q-23 88 -35 111q-29 49 -100 49h-6q-31 6 -27 39q6 33 39 37h4l365 80l76 -318l196 289h125l-284 -428l127 -510h-318l-90 360l-242 -360h-125z" />
<glyph unicode="y" horiz-adv-x="681" d="M-102 -387l127 168h147q68 0 141 110q6 10 88 160l-147 602q-23 90 -35 111q-29 49 -100 49h-6q-31 6 -27 39q6 35 43 37l422 80l108 -449l230 420h119l-490 -930q-96 -180 -178 -268q-121 -129 -268 -129h-174z" />
<glyph unicode="z" horiz-adv-x="765" d="M-14 2l16 107l584 712h-215q-94 0 -130 -26.5t-48 -102.5q0 -2 -3 -6q-10 -31 -43 -31q-39 0 -32 37l39 248h780l-16 -111l-570 -690h459l-21 -137h-800z" />
<glyph unicode="{" horiz-adv-x="1054" d="M326 459l14 84q213 68 238 221q4 31 -3 172q-4 106 7 184q25 156 192 254q141 84 299 90l-14 -92q-205 -47 -236 -235q-8 -51 -12 -154.5t-12 -155.5q-33 -211 -299 -325q201 -111 200 -277q0 -70 -41 -205t-41 -196q0 -156 164 -193l-14 -92q-143 6 -254 78 q-131 86 -131 221q0 63 33 164q29 80 57 160q23 70 23 108q0 135 -170 189z" />
<glyph unicode="|" horiz-adv-x="630" d="M199 -348l309 1960h125l-309 -1960h-125z" />
<glyph unicode="}" horiz-adv-x="1054" d="M150 -461l14 92q201 43 231 236q12 72 15 158q2 57 10 151q33 201 301 326q-203 100 -203 272q0 27 5 54.5t38 150.5q39 139 39 201q0 154 -160 192l15 92q141 -6 252 -80q133 -84 133 -221q0 -61 -33 -162q-29 -80 -57 -159q-25 -70 -25 -111q0 -129 170 -188l-14 -84 q-211 -61 -236 -219q-4 -31 2 -172q4 -111 -8 -185q-25 -156 -193 -254q-141 -84 -296 -90z" />
<glyph unicode="~" horiz-adv-x="1124" d="M143 295l2 14q57 356 269 357q57 0 164 -66q94 -61 282 -174q25 -12 35 -12q43 0 74 186l2 16h190l-2 -16q-25 -156 -72 -235q-72 -119 -208 -119q-63 0 -166 61q-92 61 -277 172q-18 12 -24 13q-49 0 -78 -183l-2 -14h-189z" />
<glyph unicode="&#xa2;" horiz-adv-x="806" d="M88 354q0 49 8 103q33 209 158 338q119 127 297 153l22 146h119l-22 -140q139 -4 231 -76.5t92 -181.5q0 -19 -2 -37l-4 -14h-233l4 14q4 27 4 52q0 137 -107 147l-110 -702q31 -14 76 -15q129 0 270 97l-23 -136q-143 -117 -352 -120l-29 -179h-118l30 187 q-311 49 -311 364zM395 469q0 -106 47 -203l88 549q-59 -53 -98 -160q-37 -98 -37 -186z" />
<glyph unicode="&#xa3;" horiz-adv-x="1067" d="M78 2l201 530h-103l21 138h133l59 161q51 139 152 273q135 178 268 205h344l-2 -31q-20 -6 -47 -14q-274 -98 -402 -441l-57 -153h117l-21 -138h-147l-148 -393h478l-21 -137h-825z" />
<glyph unicode="&#xa4;" horiz-adv-x="1167" d="M-20 365l22 147l92 16q2 25 4 52l-88 -15l23 144l86 14q55 270 219 428q184 178 475 178q444 0 444 -244q0 -24 -6 -53l-2 -14h-297l2 14q4 20 4 39q0 139 -180 139q-254 0 -336 -432l658 113l-25 -143l-655 -113q-4 -29 -6 -53l655 112l-25 -145l-638 -109 q8 -319 284 -319q211 0 363 96l-25 -162q-203 -76 -418 -75q-453 0 -510 407z" />
<glyph unicode="&#xa5;" horiz-adv-x="966" d="M145 1270q6 39 43 39h375l221 -478l357 478h155l-440 -590l-18 -111h180l-19 -121h-180l-8 -57h180l-20 -123h-180l-48 -305h-315l47 305h-199l21 123h199l8 57h-199l19 121h198q-102 229 -207 459q-14 43 -55 121q-27 43 -84 43h-6q-31 6 -25 39z" />
<glyph unicode="&#xa7;" horiz-adv-x="950" d="M96 221q0 23 4 45l2 17h246q-14 -180 164 -181q133 0 152 107q6 47 -41 84q-20 16 -92 50t-146 67q-115 57 -154 98q-53 55 -53 131q0 18 4 39q18 121 152 215q-57 53 -58 131q0 16 3 35q23 135 147 207q111 63 266 63q348 0 348 -260q0 -21 -2 -41h-239l2 14q4 18 4 37 q0 129 -141 129q-53 0 -98.5 -27.5t-53.5 -74.5q-8 -53 127 -121q70 -35 139 -67q86 -45 129 -84q72 -68 72 -150q0 -127 -143 -240q66 -53 65 -137q0 -20 -4 -41q-23 -145 -158 -221q-117 -66 -295 -65q-150 0 -243 59q-104 66 -105 182zM356 739q-8 -45 41 -77 q12 -10 84 -46l262 -131l11 11q45 45 53 92t-37 78q-41 20 -82 41l-266 133l-10 -11q-49 -47 -56 -90z" />
<glyph unicode="&#xa8;" d="M188 1163q10 55 54.5 93t99.5 38q53 0 85 -38t22 -93q-8 -53 -51.5 -90t-96.5 -37q-55 0 -88 37t-25 90zM514 1163q10 55 54 93t100 38q53 0 84.5 -38t21.5 -93q-8 -53 -51 -90t-96 -37q-55 0 -88 37t-25 90z" />
<glyph unicode="&#xa9;" horiz-adv-x="720" d="M186 1006q0 141 113 244.5t254 103.5q115 0 192.5 -73t77.5 -183q0 -139 -112.5 -243.5t-253.5 -104.5q-117 0 -194 72.5t-77 183.5zM268 1020q0 -80 57.5 -133t141.5 -53q100 0 183 74.5t83 174.5q0 78 -57.5 130.5t-140.5 52.5q-100 0 -183.5 -74t-83.5 -172zM336 1004 q0 98 53 164.5t150 66.5q139 0 125 -90l-2 -15h-101l2 15q6 37 -39 37q-59 0 -78 -119q-6 -43 -6 -66q0 -78 64 -77q55 0 108 38l-10 -69q-57 -27 -121 -27q-145 0 -145 142z" />
<glyph unicode="&#xab;" horiz-adv-x="763" d="M129 473l279 373h149l-182 -373l65 -360h-149zM418 473l278 373h150l-182 -373l65 -360h-149z" />
<glyph unicode="&#xad;" horiz-adv-x="878" d="M176 391l31 193h680l-31 -193h-680z" />
<glyph unicode="&#xae;" horiz-adv-x="720" d="M186 1006q0 141 113 244.5t254 103.5q115 0 192.5 -73t77.5 -183q0 -139 -112.5 -243.5t-253.5 -104.5q-117 0 -194 72.5t-77 183.5zM254 1016q0 -88 61.5 -144.5t151.5 -56.5q111 0 199 81.5t88 190.5q0 86 -61.5 143.5t-149.5 57.5q-111 0 -200 -82t-89 -190zM362 877 l46 278q4 27 -17 27q-18 8 -18 16q4 25 24 25h144q55 0 92 -23q49 -27 41 -78q-10 -76 -92 -102l65 -143h-110l-58 116l-18 -116h-99zM492 1069h20q53 0 61 51q8 49 -47 49h-18z" />
<glyph unicode="&#xaf;" d="M180 1036l25 158h567l-24 -158h-568z" />
<glyph unicode="&#xb0;" horiz-adv-x="667" d="M274 1081q0 102 83 180t190 78q84 0 141 -54t57 -136q0 -102 -84 -181t-186 -79q-86 0 -143.5 55t-57.5 137zM410 1114q-6 -39 18.5 -67.5t67.5 -28.5q41 0 75.5 28.5t40.5 67.5t-19.5 67.5t-66.5 28.5q-43 0 -76.5 -28.5t-39.5 -67.5z" />
<glyph unicode="&#xb1;" horiz-adv-x="1124" d="M66 -219l24 153h926l-25 -153h-925zM162 399l24 154h369l57 362h189l-58 -362h369l-25 -154h-368l-62 -397h-188l61 397h-368z" />
<glyph unicode="&#xb4;" d="M326 1034l118 355h256l-231 -355h-143z" />
<glyph unicode="&#xb6;" horiz-adv-x="1054" d="M254 758q0 39 6 80q39 238 250 364q176 106 408 107h235l-16 -101h-111l-260 -1646h-100l260 1646h-86l-260 -1646h-101l131 831q-137 20 -233 96q-123 100 -123 269z" />
<glyph unicode="&#xb7;" horiz-adv-x="493" d="M156 449q0 80 60 139t140 59q63 0 106.5 -41t43.5 -102q0 -80 -62.5 -139.5t-142.5 -59.5q-63 0 -104 41t-41 103z" />
<glyph unicode="&#xb8;" d="M100 -446l19 114q53 -33 108 -33q102 0 117 89q2 14 2 26q0 61 -51 62q-27 0 -43 -29h-121l111 262h143l-55 -131l10 2q18 4 33 4q139 0 139 -139q0 -22 -4 -47q-16 -106 -119 -162q-76 -43 -166 -43q-68 0 -123 25z" />
<glyph unicode="&#xbb;" horiz-adv-x="763" d="M113 113l184 370l-68 363h152l162 -363l-279 -370h-151zM401 113l183 370l-66 363h150l161 -363l-278 -370h-150z" />
<glyph unicode="&#xc0;" horiz-adv-x="1071" d="M-55 2l526 997q25 51 25 86q0 66 -86 66h-7q-31 6 -26 39q6 37 43 39l459 78l266 -1305h-330l-82 395h-432l-205 -395h-151zM365 516h346l-99 473zM617 1711h258l6 -355h-144z" />
<glyph unicode="&#xc1;" horiz-adv-x="1071" d="M-55 2l526 997q25 51 25 86q0 66 -86 66h-7q-31 6 -26 39q6 37 43 39l459 78l266 -1305h-330l-82 395h-432l-205 -395h-151zM365 516h346l-99 473zM641 1356l118 355h256l-231 -355h-143z" />
<glyph unicode="&#xc2;" horiz-adv-x="1071" d="M-55 2l526 997q25 51 25 86q0 66 -86 66h-7q-31 6 -26 39q6 37 43 39l459 78l266 -1305h-330l-82 395h-432l-205 -395h-151zM365 516h346l-99 473zM446 1392l226 254q43 51 61 64q35 27 86 26q49 0 74 -24q12 -10 41 -64l145 -256h-143l-148 148l-198 -148h-144z" />
<glyph unicode="&#xc3;" horiz-adv-x="1071" d="M-55 2l526 997q25 51 25 86q0 66 -86 66h-7q-31 6 -26 39q6 37 43 39l459 78l266 -1305h-330l-82 395h-432l-205 -395h-151zM365 516h346l-99 473zM438 1358l2 15q12 74 59 149q63 104 152 105q45 0 132 -57.5t99 -57.5q49 0 64 88l4 16h131l-4 -16q-14 -96 -62 -166 q-61 -90 -155 -90q-43 0 -113 47q-80 57 -106 66h-5q-53 0 -65 -84l-2 -15h-131z" />
<glyph unicode="&#xc4;" horiz-adv-x="1013" d="M-55 2l526 997q25 51 25 86q0 66 -86 66h-7q-31 6 -26 39q6 37 43 39l459 78l266 -1305h-330l-82 395h-432l-205 -395h-151zM365 516h346l-99 473zM428 1485q10 55 54.5 93t99.5 38q53 0 85 -38t22 -93q-8 -53 -51.5 -90t-96.5 -37q-55 0 -88 37t-25 90zM754 1485 q10 55 54 93t100 38q53 0 84.5 -38t21.5 -93q-8 -53 -51 -90t-96 -37q-55 0 -88 37t-25 90z" />
<glyph unicode="&#xc5;" horiz-adv-x="1046" d="M-55 2l526 997q25 51 25 86q0 66 -86 66h-7q-31 6 -26 39q6 37 43 39l459 78l266 -1305h-330l-82 395h-432l-205 -395h-151zM365 516h346l-99 473zM563 1540q0 96 74.5 168.5t171.5 72.5q76 0 127 -51t51 -125q0 -94 -75 -166.5t-169 -72.5q-78 0 -129 50t-51 124z M684 1573q-6 -39 16.5 -66t60.5 -27q39 0 71 27t38 66t-17.5 66.5t-62.5 27.5q-37 0 -68.5 -27.5t-37.5 -66.5z" />
<glyph unicode="&#xc6;" horiz-adv-x="1503" d="M-31 2l787 1092q45 63 45 94q0 43 -109 43h-6q-25 4 -24 24q0 18 16 36t37 18h923l4 -248q2 -2 0 -6q-4 -33 -38 -33q-39 0 -39 35q0 78 -33 105.5t-129 27.5h-250l8 -447h398l-19 -118h-379l10 -502h453l-18 -121h-736l-4 395h-460l-283 -395h-154zM492 516h374l-20 494 z" />
<glyph unicode="&#xc7;" horiz-adv-x="1058" d="M94 496q0 82 15 174q47 291 210 463q186 197 494 196q444 0 444 -244q0 -24 -6 -53l-2 -14h-297l2 14q4 20 4 39q0 139 -180 139q-268 0 -346 -493q-27 -164 -26 -256q0 -340 284 -340q211 0 363 96l-25 -162q-203 -76 -418 -75q-254 0 -385 134t-131 382zM344 -450 l19 114q53 -33 108 -33q102 0 117 89q2 14 2 26q0 61 -51 62q-27 0 -43 -29h-121l111 262h143l-55 -131l10 2q18 4 33 4q139 0 139 -139q0 -22 -4 -47q-16 -106 -119 -162q-76 -43 -166 -43q-68 0 -123 25z" />
<glyph unicode="&#xc8;" horiz-adv-x="897" d="M111 2l168 1071q8 41 8 70q0 49 -24.5 68.5t-86.5 19.5h-6q-31 6 -25 39q6 39 43 39h932l-41 -250v-6q-10 -31 -43 -31q-41 0 -35 37q6 29 7 47q0 47 -31 65.5t-111 18.5h-252l-4 -27l-67 -420h381l-19 -118h-381l-78 -486h488l-21 -137h-802zM586 1711h258l6 -355h-144z " />
<glyph unicode="&#xc9;" horiz-adv-x="897" d="M111 2l168 1071q8 41 8 70q0 49 -24.5 68.5t-86.5 19.5h-6q-31 6 -25 39q6 39 43 39h932l-41 -250v-6q-10 -31 -43 -31q-41 0 -35 37q6 29 7 47q0 47 -31 65.5t-111 18.5h-252l-4 -27l-67 -420h381l-19 -118h-381l-78 -486h488l-21 -137h-802zM592 1372l118 355h256 l-231 -355h-143z" />
<glyph unicode="&#xca;" horiz-adv-x="897" d="M111 2l168 1071q8 41 8 70q0 49 -24.5 68.5t-86.5 19.5h-6q-31 6 -25 39q6 39 43 39h932l-41 -250v-6q-10 -31 -43 -31q-41 0 -35 37q6 29 7 47q0 47 -31 65.5t-111 18.5h-252l-4 -27l-67 -420h381l-19 -118h-381l-78 -486h488l-21 -137h-802zM415 1392l226 254 q43 51 61 64q35 27 86 26q49 0 74 -24q12 -10 41 -64l145 -256h-143l-148 148l-198 -148h-144z" />
<glyph unicode="&#xcb;" horiz-adv-x="897" d="M111 2l168 1071q8 41 8 70q0 49 -24.5 68.5t-86.5 19.5h-6q-31 6 -25 39q6 39 43 39h932l-41 -250v-6q-10 -31 -43 -31q-41 0 -35 37q6 29 7 47q0 47 -31 65.5t-111 18.5h-252l-4 -27l-67 -420h381l-19 -118h-381l-78 -486h488l-21 -137h-802zM432 1485q10 55 54.5 93 t99.5 38q53 0 85 -38t22 -93q-8 -53 -51.5 -90t-96.5 -37q-55 0 -88 37t-25 90zM758 1485q10 55 54 93t100 38q53 0 84.5 -38t21.5 -93q-8 -53 -51 -90t-96 -37q-55 0 -88 37t-25 90z" />
<glyph unicode="&#xcc;" horiz-adv-x="428" d="M160 2l157 1004q6 33 7 57q0 102 -109 102h-6q-31 6 -25 41t41 37l459 78l-209 -1319h-315zM338 1731h258l6 -355h-144z" />
<glyph unicode="&#xcd;" horiz-adv-x="428" d="M160 2l157 1004q6 33 7 57q0 102 -109 102h-6q-31 6 -25 41t41 37l459 78l-209 -1319h-315zM381 1376l118 355h256l-231 -355h-143z" />
<glyph unicode="&#xce;" horiz-adv-x="428" d="M160 2l157 1004q6 33 7 57q0 102 -109 102h-6q-31 6 -25 41t41 37l459 78l-209 -1319h-315zM161 1378l226 254q43 51 61 64q35 27 86 26q49 0 74 -24q12 -10 41 -64l145 -256h-143l-148 148l-198 -148h-144z" />
<glyph unicode="&#xcf;" horiz-adv-x="428" d="M160 2l157 1004q6 33 7 57q0 102 -109 102h-6q-31 6 -25 41t41 37l459 78l-209 -1319h-315zM204 1505q10 55 54.5 93t99.5 38q53 0 85 -38t22 -93q-8 -53 -51.5 -90t-96.5 -37q-55 0 -88 37t-25 90zM530 1505q10 55 54 93t100 38q53 0 84.5 -38t21.5 -93q-8 -53 -51 -90 t-96 -37q-55 0 -88 37t-25 90z" />
<glyph unicode="&#xd1;" horiz-adv-x="1132" d="M160 2l159 1004q4 35 4 59q0 102 -106 102h-6q-31 6 -25 39q6 37 43 39l459 78l424 -874l137 860h129l-207 -1307h-231l-483 1061l-168 -1061h-129zM543 1392l2 15q12 74 59 149q63 104 152 105q45 0 132 -57.5t99 -57.5q49 0 64 88l4 16h131l-4 -16q-14 -96 -62 -166 q-61 -90 -155 -90q-43 0 -113 47q-80 57 -106 66h-5q-53 0 -65 -84l-2 -15h-131z" />
<glyph unicode="&#xd2;" horiz-adv-x="1099" d="M100 510q0 76 13 154q37 236 196 430q190 236 453 235q227 0 346 -164q100 -139 100 -360q0 -69 -10 -141q-43 -274 -201 -463q-182 -221 -450 -221q-227 0 -344 161q-102 141 -103 369zM406 414q0 -291 163 -291q228 0 314 541q27 172 26 278q0 279 -166 279 q-227 0 -315 -557q-23 -145 -22 -250zM652 1711h258l6 -355h-144z" />
<glyph unicode="&#xd3;" horiz-adv-x="1099" d="M100 510q0 76 13 154q37 236 196 430q190 236 453 235q227 0 346 -164q100 -139 100 -360q0 -69 -10 -141q-43 -274 -201 -463q-182 -221 -450 -221q-227 0 -344 161q-102 141 -103 369zM406 414q0 -291 163 -291q228 0 314 541q27 172 26 278q0 279 -166 279 q-227 0 -315 -557q-23 -145 -22 -250zM674 1356l118 355h256l-231 -355h-143z" />
<glyph unicode="&#xd4;" horiz-adv-x="1099" d="M100 510q0 76 13 154q37 236 196 430q190 236 453 235q227 0 346 -164q100 -139 100 -360q0 -69 -10 -141q-43 -274 -201 -463q-182 -221 -450 -221q-227 0 -344 161q-102 141 -103 369zM406 414q0 -291 163 -291q228 0 314 541q27 172 26 278q0 279 -166 279 q-227 0 -315 -557q-23 -145 -22 -250zM456 1358l226 254q43 51 61 64q35 27 86 26q49 0 74 -24q12 -10 41 -64l145 -256h-143l-148 148l-198 -148h-144z" />
<glyph unicode="&#xd5;" horiz-adv-x="1099" d="M100 510q0 76 13 154q37 236 196 430q190 236 453 235q227 0 346 -164q100 -139 100 -360q0 -69 -10 -141q-43 -274 -201 -463q-182 -221 -450 -221q-227 0 -344 161q-102 141 -103 369zM406 414q0 -291 163 -291q228 0 314 541q27 172 26 278q0 279 -166 279 q-227 0 -315 -557q-23 -145 -22 -250zM473 1358l2 15q12 74 59 149q63 104 152 105q45 0 132 -57.5t99 -57.5q49 0 64 88l4 16h131l-4 -16q-14 -96 -62 -166q-61 -90 -155 -90q-43 0 -113 47q-80 57 -106 66h-5q-53 0 -65 -84l-2 -15h-131z" />
<glyph unicode="&#xd6;" horiz-adv-x="1058" d="M125 510q0 76 13 154q37 236 196 430q190 236 453 235q227 0 346 -164q100 -139 100 -360q0 -69 -10 -141q-43 -274 -201 -463q-182 -221 -450 -221q-227 0 -344 161q-102 141 -103 369zM431 414q0 -291 163 -291q228 0 314 541q27 172 26 278q0 279 -166 279 q-227 0 -315 -557q-23 -145 -22 -250zM530 1523q10 55 54.5 93t99.5 38q53 0 85 -38t22 -93q-8 -53 -51.5 -90t-96.5 -37q-55 0 -88 37t-25 90zM856 1523q10 55 54 93t100 38q53 0 84.5 -38t21.5 -93q-8 -53 -51 -90t-96 -37q-55 0 -88 37t-25 90z" />
<glyph unicode="&#xd8;" horiz-adv-x="1099" d="M49 -74l154 215q-102 141 -103 369q0 76 13 154q37 236 196 430q190 236 453 235q145 0 250 -72l67 95h111l-109 -154q127 -143 127 -395q0 -69 -10 -139q-43 -274 -201 -463q-182 -221 -450 -221q-176 0 -283 96l-104 -150h-111zM401 418l490 674q-31 129 -148 129 q-227 0 -315 -557q-23 -139 -27 -246zM410 274q31 -184 155 -184q225 0 318 574q28 178 26 297z" />
<glyph unicode="&#xd9;" horiz-adv-x="1091" d="M184 1206q6 37 43 39l457 78l-125 -793q-25 -147 -24 -211q0 -190 182 -192q186 0 270 109q61 78 88 251l131 822h140l-127 -801q-41 -250 -125 -358q-129 -170 -426 -170q-449 0 -449 356q0 47 8 100l92 576q4 29 5 53q0 102 -109 102h-6q-31 6 -25 39zM719 1711h258 l6 -355h-144z" />
<glyph unicode="&#xda;" horiz-adv-x="1091" d="M184 1206q6 37 43 39l457 78l-125 -793q-25 -147 -24 -211q0 -190 182 -192q186 0 270 109q61 78 88 251l131 822h140l-127 -801q-41 -250 -125 -358q-129 -170 -426 -170q-449 0 -449 356q0 47 8 100l92 576q4 29 5 53q0 102 -109 102h-6q-31 6 -25 39zM695 1356 l118 355h256l-231 -355h-143z" />
<glyph unicode="&#xdb;" horiz-adv-x="1091" d="M184 1206q6 37 43 39l457 78l-125 -793q-25 -147 -24 -211q0 -190 182 -192q186 0 270 109q61 78 88 251l131 822h140l-127 -801q-41 -250 -125 -358q-129 -170 -426 -170q-449 0 -449 356q0 47 8 100l92 576q4 29 5 53q0 102 -109 102h-6q-31 6 -25 39zM516 1368 l226 254q43 51 61 64q35 27 86 26q49 0 74 -24q12 -10 41 -64l145 -256h-143l-148 148l-198 -148h-144z" />
<glyph unicode="&#xdc;" horiz-adv-x="1132" d="M184 1206q6 37 43 39l457 78l-125 -793q-25 -147 -24 -211q0 -190 182 -192q186 0 270 109q61 78 88 251l131 822h140l-127 -801q-41 -250 -125 -358q-129 -170 -426 -170q-449 0 -449 356q0 47 8 100l92 576q4 29 5 53q0 102 -109 102h-6q-31 6 -25 39zM600 1523 q10 55 54.5 93t99.5 38q53 0 85 -38t22 -93q-8 -53 -51.5 -90t-96.5 -37q-55 0 -88 37t-25 90zM926 1523q10 55 54 93t100 38q53 0 84.5 -38t21.5 -93q-8 -53 -51 -90t-96 -37q-55 0 -88 37t-25 90z" />
<glyph unicode="&#xdd;" horiz-adv-x="966" d="M147 1221q4 35 41 36l367 64l240 -487l350 475h151l-442 -604l-111 -703h-315l94 602l-200 447q-35 78 -48 92q-31 37 -96 37h-6q-31 6 -25 41zM680 1356l118 355h256l-231 -355h-143z" />
<glyph unicode="&#xdf;" horiz-adv-x="940" d="M23 2l133 846q29 180 147 313q152 168 391 168q156 0 271 -76q127 -84 127 -219q-1 -22 -5 -45q-29 -184 -290 -272q260 -70 260 -291q0 -31 -4 -64q-35 -209 -203 -307q-129 -76 -309 -75q-78 0 -154 22l23 143q61 -39 125 -39q168 0 208 256q10 72 11 123q0 98 -42 134 t-137 36h-16l16 109h17q150 0 184 215q8 49 8 90q0 166 -112 166q-94 0 -137 -100q-31 -68 -64 -275l-135 -858h-313z" />
<glyph unicode="&#xe0;" horiz-adv-x="901" d="M72 375q0 219 139 385q147 176 362 176q104 0 156 -70l8 45l324 58l-152 -967h-315l4 29q-55 -51 -170 -51q-174 0 -270 120q-86 106 -86 275zM379 324q0 -201 127 -201q106 0 149 276l13 72q18 117 18 184q0 147 -72 148q-168 0 -221 -332q-14 -84 -14 -147zM543 1336 h258l6 -355h-144z" />
<glyph unicode="&#xe1;" horiz-adv-x="901" d="M72 375q0 219 139 385q147 176 362 176q104 0 156 -70l8 45l324 58l-152 -967h-315l4 29q-55 -51 -170 -51q-174 0 -270 120q-86 106 -86 275zM379 324q0 -201 127 -201q106 0 149 276l13 72q18 117 18 184q0 147 -72 148q-168 0 -221 -332q-14 -84 -14 -147zM559 981 l118 355h256l-231 -355h-143z" />
<glyph unicode="&#xe2;" horiz-adv-x="901" d="M72 375q0 219 139 385q147 176 362 176q104 0 156 -70l8 45l324 58l-152 -967h-315l4 29q-55 -51 -170 -51q-174 0 -270 120q-86 106 -86 275zM360 983l226 254q43 51 61 64q35 27 86 26q49 0 74 -24q12 -10 41 -64l145 -256h-143l-148 148l-198 -148h-144zM379 324 q0 -201 127 -201q106 0 149 276l13 72q18 117 18 184q0 147 -72 148q-168 0 -221 -332q-14 -84 -14 -147z" />
<glyph unicode="&#xe3;" horiz-adv-x="892" d="M66 375q0 219 139 385q147 176 362 176q104 0 156 -70l8 45l324 58l-152 -967h-315l4 29q-55 -51 -170 -51q-174 0 -270 120q-86 106 -86 275zM369 983l2 15q12 74 59 149q63 104 152 105q45 0 132 -57.5t99 -57.5q49 0 64 88l4 16h131l-4 -16q-14 -96 -62 -166 q-61 -90 -155 -90q-43 0 -113 47q-80 57 -106 66h-5q-53 0 -65 -84l-2 -15h-131zM373 324q0 -201 127 -201q106 0 149 276l13 72q18 117 18 184q0 147 -72 148q-168 0 -221 -332q-14 -84 -14 -147z" />
<glyph unicode="&#xe4;" horiz-adv-x="903" d="M74 375q0 219 139 385q147 176 362 176q104 0 156 -70l8 45l324 58l-152 -967h-315l4 29q-55 -51 -170 -51q-174 0 -270 120q-86 106 -86 275zM381 324q0 -201 127 -201q106 0 149 276l13 72q18 117 18 184q0 147 -72 148q-168 0 -221 -332q-14 -84 -14 -147zM403 1110 q10 55 54.5 93t99.5 38q53 0 85 -38t22 -93q-8 -53 -51.5 -90t-96.5 -37q-55 0 -88 37t-25 90zM729 1110q10 55 54 93t100 38q53 0 84.5 -38t21.5 -93q-8 -53 -51 -90t-96 -37q-55 0 -88 37t-25 90z" />
<glyph unicode="&#xe5;" horiz-adv-x="892" d="M66 375q0 219 139 385q147 176 362 176q104 0 156 -70l8 45l324 58l-152 -967h-315l4 29q-55 -51 -170 -51q-174 0 -270 120q-86 106 -86 275zM373 324q0 -201 127 -201q106 0 149 276l13 72q18 117 18 184q0 147 -72 148q-168 0 -221 -332q-14 -84 -14 -147zM500 1110 q0 96 74.5 168.5t171.5 72.5q76 0 127 -51t51 -125q0 -94 -75 -166.5t-169 -72.5q-78 0 -129 50t-51 124zM621 1143q-6 -39 16.5 -66t60.5 -27q39 0 71 27t38 66t-17.5 66.5t-62.5 27.5q-37 0 -68.5 -27.5t-37.5 -66.5z" />
<glyph unicode="&#xe6;" horiz-adv-x="1398" d="M90 375q0 219 139 385q147 176 363 176q104 0 156 -70l8 45l315 58l-8 -60q129 47 190 47q164 0 252 -116q78 -105 70 -269l-567 -116q-4 -27 -4 -52q0 -111 51 -184q57 -82 162 -82q131 0 272 103l-23 -138q-154 -123 -368 -122q-92 0 -174 49l-4 -27h-308l4 29 q-55 -51 -170 -51q-174 0 -270 120q-86 106 -86 275zM397 319q0 -205 127 -204q104 0 150 284l12 72q18 117 19 184q0 147 -72 148q-168 0 -221 -332q-14 -86 -15 -152zM1016 563l336 70q12 227 -125 227q-150 0 -211 -297z" />
<glyph unicode="&#xe7;" horiz-adv-x="806" d="M88 354q0 49 8 103q37 240 193 370q150 129 366 129q143 0 240.5 -74.5t97.5 -185.5q0 -19 -2 -37l-4 -14h-233l4 14q4 27 4 52q0 150 -123 149q-160 0 -215 -315q-10 -57 -10 -113q0 -129 51 -207q55 -84 156 -84q129 0 274 129l-25 -172q-145 -119 -370 -118 q-190 0 -301 97t-111 277zM206 -446l19 114q53 -33 108 -33q102 0 117 89q2 14 2 26q0 61 -51 62q-27 0 -43 -29h-121l111 262h143l-55 -131l10 2q18 4 33 4q139 0 139 -139q0 -22 -4 -47q-16 -106 -119 -162q-76 -43 -166 -43q-68 0 -123 25z" />
<glyph unicode="&#xe8;" horiz-adv-x="835" d="M77 354q0 49 9 103q37 240 192 370q147 129 367 129q164 0 252 -116q79 -105 69 -269l-567 -116q-4 -25 -4 -49q0 -111 53 -185q57 -80 162 -80q129 0 276 133l-28 -176q-145 -119 -369 -118q-190 0 -301 97t-111 277zM417 563l336 70q12 227 -125 227q-150 0 -211 -297z M447 1336h258l6 -355h-144z" />
<glyph unicode="&#xe9;" horiz-adv-x="845" d="M71 354q0 49 9 103q37 240 192 370q147 129 367 129q164 0 252 -116q79 -105 69 -269l-567 -116q-4 -25 -4 -49q0 -111 53 -185q57 -80 162 -80q129 0 276 133l-28 -176q-145 -119 -369 -118q-190 0 -301 97t-111 277zM411 563l336 70q12 227 -125 227q-150 0 -211 -297z M502 981l118 355h256l-231 -355h-143z" />
<glyph unicode="&#xea;" horiz-adv-x="854" d="M71 354q0 49 9 103q37 240 192 370q147 129 367 129q164 0 252 -116q79 -105 69 -269l-567 -116q-4 -25 -4 -49q0 -111 53 -185q57 -80 162 -80q129 0 276 133l-28 -176q-145 -119 -369 -118q-190 0 -301 97t-111 277zM303 983l226 254q43 51 61 64q35 27 86 26 q49 0 74 -24q12 -10 41 -64l145 -256h-143l-148 148l-198 -148h-144zM411 563l336 70q12 227 -125 227q-150 0 -211 -297z" />
<glyph unicode="&#xeb;" horiz-adv-x="845" d="M71 354q0 49 9 103q37 240 192 370q147 129 367 129q164 0 252 -116q79 -105 69 -269l-567 -116q-4 -25 -4 -49q0 -111 53 -185q57 -80 162 -80q129 0 276 133l-28 -176q-145 -119 -369 -118q-190 0 -301 97t-111 277zM356 1110q10 55 54.5 93t99.5 38q53 0 85 -38 t22 -93q-8 -53 -51.5 -90t-96.5 -37q-55 0 -88 37t-25 90zM411 563l336 70q12 227 -125 227q-150 0 -211 -297zM682 1110q10 55 54 93t100 38q53 0 84.5 -38t21.5 -93q-8 -53 -51 -90t-96 -37q-55 0 -88 37t-25 90z" />
<glyph unicode="&#xec;" horiz-adv-x="473" d="M78 852q6 35 43 37l457 80l-152 -967h-315l102 653q6 43 6 70q0 51 -23.5 69.5t-84.5 18.5h-7q-31 6 -26 39zM283 1336h258l6 -355h-144z" />
<glyph unicode="&#xed;" horiz-adv-x="448" d="M78 852q6 35 43 37l457 80l-152 -967h-315l102 653q6 43 6 70q0 51 -23.5 69.5t-84.5 18.5h-7q-31 6 -26 39zM287 981l118 355h256l-231 -355h-143z" />
<glyph unicode="&#xee;" horiz-adv-x="473" d="M86 852q6 35 43 37l457 80l-152 -967h-315l102 653q6 43 6 70q0 51 -23.5 69.5t-84.5 18.5h-7q-31 6 -26 39zM86 983l226 254q43 51 61 64q35 27 86 26q49 0 74 -24q12 -10 41 -64l145 -256h-143l-148 148l-198 -148h-144z" />
<glyph unicode="&#xef;" horiz-adv-x="473" d="M86 852q6 35 43 37l457 80l-152 -967h-315l102 653q6 43 6 70q0 51 -23.5 69.5t-84.5 18.5h-7q-31 6 -26 39zM127 1110q10 55 54.5 93t99.5 38q53 0 85 -38t22 -93q-8 -53 -51.5 -90t-96.5 -37q-55 0 -88 37t-25 90zM453 1110q10 55 54 93t100 38q53 0 84.5 -38t21.5 -93 q-8 -53 -51 -90t-96 -37q-55 0 -88 37t-25 90z" />
<glyph unicode="&#xf1;" horiz-adv-x="1069" d="M86 852q6 35 43 37l457 80l-17 -107q113 74 285 74q152 0 231 -109q66 -86 66 -209q0 -28 -4 -53l-88 -563h-316l90 569q14 94 15 127q0 115 -88 115q-96 0 -160 -74q-59 -66 -78 -172l-88 -565h-315l102 653q6 43 6 70q0 51 -23.5 69.5t-84.5 18.5h-7q-31 6 -26 39z M430 983l2 15q12 74 59 149q63 104 152 105q45 0 132 -57.5t99 -57.5q49 0 64 88l4 16h131l-4 -16q-14 -96 -62 -166q-61 -90 -155 -90q-43 0 -113 47q-80 57 -106 66h-5q-53 0 -65 -84l-2 -15h-131z" />
<glyph unicode="&#xf2;" horiz-adv-x="964" d="M82 356q0 47 8 101q37 240 195 370q147 129 366 129q190 0 301 -101t111 -288q0 -53 -8 -110q-37 -227 -193 -355q-147 -123 -366 -122q-190 0 -302 97t-112 279zM387 283q0 -160 131 -160q111 0 162 104q33 66 60 230q23 150 22 207q0 184 -129 184q-117 0 -174 -152 q-27 -68 -53 -239q-18 -119 -19 -174zM547 1336h258l6 -355h-144z" />
<glyph unicode="&#xf3;" horiz-adv-x="937" d="M72 356q0 47 8 101q37 240 195 370q147 129 366 129q190 0 301 -101t111 -288q0 -53 -8 -110q-37 -227 -193 -355q-147 -123 -366 -122q-190 0 -302 97t-112 279zM377 283q0 -160 131 -160q111 0 162 104q33 66 60 230q23 150 22 207q0 184 -129 184q-117 0 -174 -152 q-27 -68 -53 -239q-18 -119 -19 -174zM541 981l118 355h256l-231 -355h-143z" />
<glyph unicode="&#xf4;" horiz-adv-x="958" d="M84 356q0 47 8 101q37 240 195 370q147 129 366 129q190 0 301 -101t111 -288q0 -53 -8 -110q-37 -227 -193 -355q-147 -123 -366 -122q-190 0 -302 97t-112 279zM362 983l226 254q43 51 61 64q35 27 86 26q49 0 74 -24q12 -10 41 -64l145 -256h-143l-148 148l-198 -148 h-144zM389 283q0 -160 131 -160q111 0 162 104q33 66 60 230q23 150 22 207q0 184 -129 184q-117 0 -174 -152q-27 -68 -53 -239q-18 -119 -19 -174z" />
<glyph unicode="&#xf5;" horiz-adv-x="940" d="M65 356q0 47 8 101q37 240 195 370q147 129 366 129q190 0 301 -101t111 -288q0 -53 -8 -110q-37 -227 -193 -355q-147 -123 -366 -122q-190 0 -302 97t-112 279zM370 283q0 -160 131 -160q111 0 162 104q33 66 60 230q23 150 22 207q0 184 -129 184q-117 0 -174 -152 q-27 -68 -53 -239q-18 -119 -19 -174zM383 983l2 15q12 74 59 149q63 104 152 105q45 0 132 -57.5t99 -57.5q49 0 64 88l4 16h131l-4 -16q-14 -96 -62 -166q-61 -90 -155 -90q-43 0 -113 47q-80 57 -106 66h-5q-53 0 -65 -84l-2 -15h-131z" />
<glyph unicode="&#xf6;" horiz-adv-x="940" d="M65 356q0 47 8 101q37 240 195 370q147 129 366 129q190 0 301 -101t111 -288q0 -53 -8 -110q-37 -227 -193 -355q-147 -123 -366 -122q-190 0 -302 97t-112 279zM370 283q0 -160 131 -160q111 0 162 104q33 66 60 230q23 150 22 207q0 184 -129 184q-117 0 -174 -152 q-27 -68 -53 -239q-18 -119 -19 -174zM389 1110q10 55 54.5 93t99.5 38q53 0 85 -38t22 -93q-8 -53 -51.5 -90t-96.5 -37q-55 0 -88 37t-25 90zM715 1110q10 55 54 93t100 38q53 0 84.5 -38t21.5 -93q-8 -53 -51 -90t-96 -37q-55 0 -88 37t-25 90z" />
<glyph unicode="&#xf7;" horiz-adv-x="1124" d="M162 399l24 154h926l-25 -154h-925zM451 141q10 57 55 97.5t100 40.5t89 -40.5t26 -93.5q-10 -55 -55 -93t-101 -38q-53 0 -88 37t-26 90zM555 801q10 57 55 97t101 40q55 0 88.5 -40t25.5 -95q-10 -53 -56 -92t-99 -39q-55 0 -89 38t-26 91z" />
<glyph unicode="&#xf8;" horiz-adv-x="970" d="M55 -20l127 135q-94 82 -94 241q0 47 8 101q37 240 193 370q147 129 366 129q113 0 246 -75l51 55h113q-25 -29 -94 -107q96 -94 96 -264q0 -51 -8 -108q-37 -229 -188.5 -353t-370.5 -124q-145 0 -232 51q-14 8 -26 24q-25 -25 -72 -75h-115zM393 213q10 -137 123 -137 q115 0 172 145q29 72 55 236q9 51 21 153q-6 -4 -174 -186zM393 340l172 182q133 141 205 217q-45 121 -131 121q-115 0 -176 -158q-27 -72 -53 -245q-6 -39 -17 -117z" />
<glyph unicode="&#xf9;" horiz-adv-x="1101" d="M151 852q6 35 43 37l457 80l-96 -609q-14 -94 -14 -127q0 -113 88 -112q94 0 159 72q59 66 78 169l45 293q6 43 6 70q0 51 -24.5 69.5t-85.5 18.5h-6q-31 6 -27 39q6 35 43 37l459 80l-152 -967h-315l8 51q-111 -72 -285 -71q-154 0 -233 106q-63 86 -64 209q0 29 4 55 l48 303q6 43 6 70q0 51 -23.5 69.5t-85.5 18.5h-6q-31 6 -27 39zM611 1336h258l6 -355h-144z" />
<glyph unicode="&#xfa;" horiz-adv-x="1044" d="M98 852q6 35 43 37l457 80l-96 -609q-14 -94 -14 -127q0 -113 88 -112q94 0 159 72q59 66 78 169l45 293q6 43 6 70q0 51 -24.5 69.5t-85.5 18.5h-6q-31 6 -27 39q6 35 43 37l459 80l-152 -967h-315l8 51q-111 -72 -285 -71q-154 0 -233 106q-63 86 -64 209q0 29 4 55 l48 303q6 43 6 70q0 51 -23.5 69.5t-85.5 18.5h-6q-31 6 -27 39zM578 981l118 355h256l-231 -355h-143z" />
<glyph unicode="&#xfb;" horiz-adv-x="1085" d="M135 852q6 35 43 37l457 80l-96 -609q-14 -94 -14 -127q0 -113 88 -112q94 0 159 72q59 66 78 169l45 293q6 43 6 70q0 51 -24.5 69.5t-85.5 18.5h-6q-31 6 -27 39q6 35 43 37l459 80l-152 -967h-315l8 51q-111 -72 -285 -71q-154 0 -233 106q-63 86 -64 209q0 29 4 55 l48 303q6 43 6 70q0 51 -23.5 69.5t-85.5 18.5h-6q-31 6 -27 39zM417 983l226 254q43 51 61 64q35 27 86 26q49 0 74 -24q12 -10 41 -64l145 -256h-143l-148 148l-198 -148h-144z" />
<glyph unicode="&#xfc;" horiz-adv-x="1060" d="M143 852q6 35 43 37l457 80l-96 -609q-14 -94 -14 -127q0 -113 88 -112q94 0 159 72q59 66 78 169l45 293q6 43 6 70q0 51 -24.5 69.5t-85.5 18.5h-6q-31 6 -27 39q6 35 43 37l459 80l-152 -967h-315l8 51q-111 -72 -285 -71q-154 0 -233 106q-63 86 -64 209q0 29 4 55 l48 303q6 43 6 70q0 51 -23.5 69.5t-85.5 18.5h-6q-31 6 -27 39zM469 1110q10 55 54.5 93t99.5 38q53 0 85 -38t22 -93q-8 -53 -51.5 -90t-96.5 -37q-55 0 -88 37t-25 90zM795 1110q10 55 54 93t100 38q53 0 84.5 -38t21.5 -93q-8 -53 -51 -90t-96 -37q-55 0 -88 37t-25 90z " />
<glyph unicode="&#xfd;" horiz-adv-x="755" d="M-102 -387l127 168h147q68 0 141 110q6 10 88 160l-147 602q-23 90 -35 111q-29 49 -100 49h-6q-31 6 -27 39q6 35 43 37l422 80l108 -449l230 420h119l-490 -930q-96 -180 -178 -268q-121 -129 -268 -129h-174zM455 1034l118 355h256l-231 -355h-143z" />
<glyph unicode="&#xff;" horiz-adv-x="755" d="M-102 -387l127 168h147q68 0 141 110q6 10 88 160l-147 602q-23 90 -35 111q-29 49 -100 49h-6q-31 6 -27 39q6 35 43 37l422 80l108 -449l230 420h119l-490 -930q-96 -180 -178 -268q-121 -129 -268 -129h-174zM413 1128q10 55 54.5 93t99.5 38q53 0 85 -38t22 -93 q-8 -53 -51.5 -90t-96.5 -37q-55 0 -88 37t-25 90zM739 1128q10 55 54 93t100 38q53 0 84.5 -38t21.5 -93q-8 -53 -51 -90t-96 -37q-55 0 -88 37t-25 90z" />
<glyph unicode="&#x152;" horiz-adv-x="1558" d="M78 510q0 76 12 154q37 236 197 430q190 236 450 235q86 0 148 -20h880l-41 -250v-6q-10 -31 -43 -31q-41 0 -34 37q6 29 6 47q0 47 -32 65.5t-112 18.5h-252l-69 -447h381l-19 -118h-381l-79 -502h487l-18 -121h-803l4 29q-111 -51 -238 -51q-225 0 -342 161 q-102 141 -102 369zM381 391q0 -301 160 -301q227 1 319 574q27 166 27 274q0 283 -168 283q-225 0 -313 -557q-25 -158 -25 -273z" />
<glyph unicode="&#x153;" horiz-adv-x="1523" d="M88 354q0 49 8 103q37 240 193 370q147 129 366 129q190 0 312 -125q166 125 352 125q164 0 252 -116q79 -105 69 -269l-567 -116q-4 -25 -4 -49q0 -111 53 -185q57 -80 162 -80q129 0 270 97l-22 -136q-150 -123 -369 -122q-205 0 -313 106q-141 -106 -350 -106 q-190 0 -301 97t-111 277zM387 260q0 -184 129 -184q115 0 172 145q29 72 55 236q29 188 21 270q-16 133 -125 133q-115 0 -176 -158q-27 -72 -53 -245q-23 -137 -23 -197zM1092 563l335 70q12 227 -124 227q-150 0 -211 -297z" />
<glyph unicode="&#x178;" horiz-adv-x="966" d="M147 1221q4 35 41 36l367 64l240 -487l350 475h151l-442 -604l-111 -703h-315l94 602l-200 447q-35 78 -48 92q-31 37 -96 37h-6q-31 6 -25 41zM561 1485q10 55 54.5 93t99.5 38q53 0 85 -38t22 -93q-8 -53 -51.5 -90t-96.5 -37q-55 0 -88 37t-25 90zM887 1485 q10 55 54 93t100 38q53 0 84.5 -38t21.5 -93q-8 -53 -51 -90t-96 -37q-55 0 -88 37t-25 90z" />
<glyph unicode="&#x2c6;" d="M145 1036l226 254q43 51 61 64q35 27 86 26q49 0 74 -24q12 -10 41 -64l145 -256h-143l-148 148l-198 -148h-144z" />
<glyph unicode="&#x2dc;" d="M162 1036l2 15q12 74 59 149q63 104 152 105q45 0 132 -57.5t99 -57.5q49 0 64 88l4 16h131l-4 -16q-14 -96 -62 -166q-61 -90 -155 -90q-43 0 -113 47q-80 57 -106 66h-5q-53 0 -65 -84l-2 -15h-131z" />
<glyph unicode="&#x2000;" horiz-adv-x="890" />
<glyph unicode="&#x2001;" horiz-adv-x="1781" />
<glyph unicode="&#x2002;" horiz-adv-x="890" />
<glyph unicode="&#x2003;" horiz-adv-x="1781" />
<glyph unicode="&#x2004;" horiz-adv-x="593" />
<glyph unicode="&#x2005;" horiz-adv-x="445" />
<glyph unicode="&#x2006;" horiz-adv-x="296" />
<glyph unicode="&#x2007;" horiz-adv-x="296" />
<glyph unicode="&#x2008;" horiz-adv-x="222" />
<glyph unicode="&#x2009;" horiz-adv-x="356" />
<glyph unicode="&#x200a;" horiz-adv-x="98" />
<glyph unicode="&#x2010;" horiz-adv-x="878" d="M176 391l31 193h680l-31 -193h-680z" />
<glyph unicode="&#x2011;" horiz-adv-x="878" d="M176 391l31 193h680l-31 -193h-680z" />
<glyph unicode="&#x2012;" horiz-adv-x="878" d="M176 391l31 193h680l-31 -193h-680z" />
<glyph unicode="&#x2013;" horiz-adv-x="1054" d="M162 391l28 191h857l-29 -191h-856z" />
<glyph unicode="&#x2014;" horiz-adv-x="1370" d="M164 391l29 191h1167l-29 -191h-1167z" />
<glyph unicode="&#x2018;" horiz-adv-x="477" d="M221 901q0 14 2 27q18 115 262 405h123l-157 -233q53 -8 86.5 -48t33.5 -96q0 -80 -60 -138t-138 -58q-66 0 -109 40t-43 101z" />
<glyph unicode="&#x2019;" horiz-adv-x="411" d="M152 754l157 231q-53 8 -86 48t-33 95q0 78 59.5 137.5t137.5 59.5q66 0 109 -41t43 -102q0 -13 -2 -27q-18 -113 -261 -401h-124z" />
<glyph unicode="&#x201a;" horiz-adv-x="493" d="M57 -254l160 234q-53 8 -87 48t-34 95q0 78 60.5 138.5t138.5 60.5q63 0 106 -41t43 -103q0 -14 -2 -26q-18 -115 -260 -406h-125z" />
<glyph unicode="&#x201c;" horiz-adv-x="841" d="M221 901q0 14 2 27q18 115 262 405h123l-157 -233q53 -8 86.5 -48t33.5 -96q0 -80 -60 -138t-138 -58q-66 0 -109 40t-43 101zM571 901q0 14 2 27q18 115 261 405h124l-157 -233q53 -8 86 -48t33 -96q0 -78 -59.5 -137t-137.5 -59q-66 0 -109 40t-43 101z" />
<glyph unicode="&#x201d;" horiz-adv-x="841" d="M217 754l158 231q-53 8 -86 48t-33 95q0 78 59.5 137.5t137.5 59.5q66 0 108.5 -41t42.5 -102q0 -13 -2 -27q-18 -113 -260 -401h-125zM567 754l158 231q-53 8 -87 48t-34 95q0 78 60.5 137.5t138.5 59.5q63 0 107 -41t44 -102q0 -15 -2 -27q-18 -113 -262 -401h-123z " />
<glyph unicode="&#x201e;" horiz-adv-x="841" d="M57 -254l160 234q-53 8 -87 48t-34 95q0 78 60.5 138.5t138.5 60.5q63 0 106 -41t43 -103q0 -14 -2 -26q-18 -115 -260 -406h-125zM408 -254l159 234q-55 8 -89 48t-34 95q0 80 60.5 139.5t140.5 59.5q70 0 115 -50t33 -120q-18 -115 -263 -406h-122z" />
<glyph unicode="&#x2022;" horiz-adv-x="948" d="M221 643q0 164 128 291t292 127q133 0 220 -88t87 -217q0 -164 -128 -288t-292 -124q-133 0 -220 86t-87 213z" />
<glyph unicode="&#x2026;" horiz-adv-x="1335" d="M96 123q0 78 59.5 138.5t139.5 60.5q63 0 106 -41t43 -103q0 -80 -62 -140.5t-142 -60.5q-63 0 -103.5 42t-40.5 104zM512 123q0 78 60.5 138.5t140.5 60.5q63 0 106 -41t43 -103q0 -80 -63.5 -140.5t-143.5 -60.5q-61 0 -102 42t-41 104zM930 123q0 80 60.5 139.5 t139.5 59.5q63 0 106.5 -41t43.5 -103q0 -80 -63.5 -140.5t-143.5 -60.5q-63 0 -103 42t-40 104z" />
<glyph unicode="&#x202f;" horiz-adv-x="356" />
<glyph unicode="&#x2039;" horiz-adv-x="526" d="M125 473l299 373h151l-184 -373l68 -360h-150z" />
<glyph unicode="&#x203a;" horiz-adv-x="526" d="M104 113l183 370l-66 363h148l184 -363l-299 -370h-150z" />
<glyph unicode="&#x205f;" horiz-adv-x="445" />
<glyph unicode="&#x20ac;" horiz-adv-x="1167" d="M-20 365l22 147l92 16q2 25 4 52l-88 -15l23 144l86 14q55 270 219 428q184 178 475 178q444 0 444 -244q0 -24 -6 -53l-2 -14h-297l2 14q4 20 4 39q0 139 -180 139q-254 0 -336 -432l658 113l-25 -143l-655 -113q-4 -29 -6 -53l655 112l-25 -145l-638 -109 q8 -319 284 -319q211 0 363 96l-25 -162q-203 -76 -418 -75q-453 0 -510 407z" />
<glyph unicode="&#x2122;" horiz-adv-x="798" d="M233 1233l13 76h289l-13 -76q-16 -20 -24 -21q-25 0 -21 21.5t-24 21.5h-21l-49 -309h-102l49 309h-19q-31 0 -37 -21.5t-20 -21.5q-25 0 -21 21zM496 946l45 287q4 35 -16.5 35t-16.5 20q4 18 22 21h127l62 -224l106 224h113l-57 -363h-105l33 215l-104 -215h-58 l-59 232l-37 -232h-55z" />
<glyph unicode="&#xe000;" horiz-adv-x="972" d="M0 0v973h973v-973h-973z" />
<glyph unicode="&#xfb01;" horiz-adv-x="921" d="M109 2l131 829h-123l16 109h123l14 86q20 129 140 227q129 106 297 107q154 0 231 -45h8q63 0 106.5 -41t43.5 -103q0 -80 -63.5 -139t-143.5 -59q-61 0 -102.5 41t-41.5 102q0 55 33 105q-20 45 -73 45q-82 0 -113 -197l-21 -129h310l190 29l-151 -967h-316l103 653 q6 43 6 80q0 96 -47 96h-111l-131 -829h-315z" />
<glyph unicode="&#xfb02;" horiz-adv-x="940" d="M109 2l131 829h-123l16 109h123l14 86q20 129 140 227q129 106 297 107q96 0 170 -21l280 47l-219 -1384h-315l176 1118q4 23 4 41q0 104 -98 105q-57 0 -87 -78q-12 -33 -26 -119l-21 -129h154l-16 -109h-154l-131 -829h-315z" />
</font>
</defs>
</svg>
